/* XPM */
static const char *ClientTsFrm_WxBitmapButton1_XPM[]={
/* ClientTsFrm_WxBitmapButton1 */
"32 32 322 2",
"      c None",
" 0    c #8C8C8C",
" 1    c #545454",
" 2    c #645454",
" 3    c #985454",
" 4    c #A15454",
" 5    c #A05454",
" 6    c #9E5454",
" 7    c #9C5454",
" 8    c #995454",
" 9    c #975454",
" a    c #9A5454",
" b    c #9B5454",
" c    c #785454",
" d    c #6B5454",
" e    c #625454",
" f    c #C5C5C5",
" g    c #000000",
" h    c #140000",
" i    c #690000",
" j    c #750000",
" k    c #730000",
" l    c #710000",
" m    c #710202",
" n    c #791010",
" o    c #8C2929",
" p    c #9F4444",
" q    c #B26060",
" r    c #BA6D6D",
" s    c #BB6F6F",
" t    c #B46565",
" u    c #A34C4C",
" v    c #8F3131",
" w    c #771515",
" x    c #6B0404",
" y    c #680000",
" z    c #350000",
" A    c #210000",
" B    c #190000",
" C    c #010000",
" D    c #A9A9A9",
" E    c #150000",
" F    c #620000",
" G    c #760000",
" H    c #740000",
" I    c #780A0A",
" J    c #A24343",
" K    c #C47777",
" L    c #DDA5A5",
" M    c #E9BCBC",
" N    c #F0CCCC",
" O    c #F2D1D1",
" P    c #F2D2D2",
" Q    c #F0CECE",
" R    c #EBC1C1",
" S    c #E2ADAD",
" T    c #CB8585",
" U    c #AA5454",
" V    c #781414",
" W    c #4F0000",
" X    c #280000",
" Y    c #180000",
" Z    c #020000",
" &    c #0D0000",
"0     c #6B0000",
"00    c #770000",
"01    c #750404",
"02    c #9F3E3E",
"03    c #D69393",
"04    c #F3D1D1",
"05    c #F9E3E3",
"06    c #FCE9E9",
"07    c #FBE8E8",
"08    c #FBE7E7",
"09    c #FAE7E7",
"0a    c #FAE5E5",
"0b    c #F5D8D8",
"0c    c #E1A8A8",
"0d    c #AF5959",
"0e    c #680C0C",
"0f    c #2B0000",
"0g    c #0A0000",
"0h    c #790000",
"0i    c #780808",
"0j    c #AC5151",
"0k    c #EEC3C3",
"0l    c #F9DDDD",
"0m    c #F9E1E1",
"0n    c #F9E0E0",
"0o    c #F9DFDF",
"0p    c #F4D1D1",
"0q    c #C07575",
"0r    c #721313",
"0s    c #200000",
"0t    c #040000",
"0u    c #595454",
"0v    c #510000",
"0w    c #780000",
"0x    c #7A0909",
"0y    c #CA8080",
"0z    c #F8D5D5",
"0A    c #F8D7D7",
"0B    c #F7D7D7",
"0C    c #FADADA",
"0D    c #761717",
"0E    c #260000",
"0F    c #8A5454",
"0G    c #780505",
"0H    c #B45F5F",
"0I    c #F7D1D1",
"0J    c #F6D0D0",
"0K    c #F6CFCF",
"0L    c #F8D3D3",
"0M    c #CE8A8A",
"0N    c #6A1313",
"0O    c #0E0000",
"0P    c #A65454",
"0Q    c #A74949",
"0R    c #F2BFBF",
"0S    c #F3C4C4",
"0T    c #F4C4C4",
"0U    c #F6C8C8",
"0V    c #C27777",
"0W    c #450101",
"0X    c #070000",
"0Y    c #A55454",
"0Z    c #7B0505",
"0&    c #E19C9C",
"1     c #F4BEBE",
"10    c #F2BCBC",
"11    c #F3BDBD",
"12    c #F2B8B8",
"13    c #7C1E1E",
"14    c #1D0000",
"15    c #A43838",
"16    c #F4B7B7",
"17    c #F0B0B0",
"18    c #F3B4B4",
"19    c #C06767",
"1a    c #510303",
"1b    c #7D0202",
"1c    c #C25C5C",
"1d    c #F0AAAA",
"1e    c #EEA6A6",
"1f    c #EEA7A7",
"1g    c #DA8282",
"1h    c #771010",
"1i    c #0B0000",
"1j    c #860606",
"1k    c #D26767",
"1l    c #ED9B9B",
"1m    c #EC9999",
"1n    c #E38585",
"1o    c #921818",
"1p    c #270000",
"1q    c #8C0404",
"1r    c #D15E5E",
"1s    c #EB9090",
"1t    c #EA8E8E",
"1u    c #E17A7A",
"1v    c #9B1414",
"1w    c #390000",
"1x    c #AAA9A9",
"1y    c #A45454",
"1z    c #920000",
"1A    c #C54242",
"1B    c #E98484",
"1C    c #E78181",
"1D    c #D76161",
"1E    c #9F0A0A",
"1F    c #4A0000",
"1G    c #AFA9A9",
"1H    c #950000",
"1I    c #B52020",
"1J    c #E77979",
"1K    c #E57575",
"1L    c #E77878",
"1M    c #C83F3F",
"1N    c #9F0101",
"1O    c #520000",
"1P    c #B3A9A9",
"1Q    c #990000",
"1R    c #A70101",
"1S    c #D65050",
"1T    c #E36767",
"1U    c #E26666",
"1V    c #E06262",
"1W    c #AE0D0D",
"1X    c #A20000",
"1Y    c #540000",
"1Z    c #A90000",
"1&    c #BA1D1D",
"2     c #DD5555",
"20    c #DF5959",
"21    c #E05959",
"22    c #C83131",
"23    c #A40000",
"24    c #B1A9A9",
"25    c #AE0000",
"26    c #AD0000",
"27    c #BF1C1C",
"28    c #DC4848",
"29    c #DD4949",
"2a    c #DD4848",
"2b    c #CA2B2B",
"2c    c #AF0505",
"2d    c #AF0000",
"2e    c #A10000",
"2f    c #420000",
"2g    c #ACA9A9",
"2h    c #8E0000",
"2i    c #B10000",
"2j    c #B10101",
"2k    c #C41C1C",
"2l    c #D83838",
"2m    c #DB3B3B",
"2n    c #DA3A3A",
"2o    c #DA3B3B",
"2p    c #CD2727",
"2q    c #B30505",
"2r    c #B30000",
"2s    c #9A0000",
"2t    c #310000",
"2u    c #830000",
"2v    c #B00000",
"2w    c #B70000",
"2x    c #BC0808",
"2y    c #D01F1F",
"2z    c #D62828",
"2A    c #D72929",
"2B    c #D62929",
"2C    c #D32323",
"2D    c #C10E0E",
"2E    c #B70101",
"2F    c #B60000",
"2G    c #860000",
"2H    c #7C0000",
"2I    c #A70000",
"2J    c #BD0000",
"2K    c #BC0000",
"2L    c #BD0303",
"2M    c #C40A0A",
"2N    c #CE1515",
"2O    c #D31919",
"2P    c #D41B1B",
"2Q    c #D41A1A",
"2R    c #D01616",
"2S    c #C70D0D",
"2T    c #BF0505",
"2U    c #B20000",
"2V    c #6A0000",
"2W    c #890000",
"2X    c #C40000",
"2Y    c #C30000",
"2Z    c #C20000",
"2&    c #C80404",
"3     c #CB0606",
"30    c #CC0808",
"31    c #CD0808",
"32    c #CB0707",
"33    c #C90505",
"34    c #C50101",
"35    c #C70000",
"36    c #940000",
"37    c #330000",
"38    c #A35454",
"39    c #B40000",
"3a    c #CB0000",
"3b    c #CA0000",
"3c    c #120000",
"3d    c #450000",
"3e    c #800000",
"3f    c #D20000",
"3g    c #D10000",
"3h    c #CD0000",
"3i    c #230000",
"3j    c #3C0000",
"3k    c #2C0000",
"3l    c #3A0000",
"3m    c #D80000",
"3n    c #D90000",
"3o    c #DC0000",
"3p    c #4B0000",
"3q    c #030000",
"3r    c #0F0000",
"3s    c #060000",
"3t    c #360000",
"3u    c #D60000",
"3v    c #E20000",
"3w    c #E10000",
"3x    c #DE0000",
"3y    c #AB0000",
"3z    c #440000",
"3A    c #050000",
"3B    c #900000",
"3C    c #EC0000",
"3D    c #E90000",
"3E    c #EB0000",
"3F    c #E70000",
"3G    c #9E0000",
"3H    c #6C0000",
"3I    c #E60000",
"3J    c #F20000",
"3K    c #F50000",
"3L    c #F40000",
"3M    c #F30000",
"3N    c #130000",
"3O    c #3E0000",
"3P    c #F10000",
"3Q    c #FC0000",
"3R    c #E30000",
"3S    c #B90000",
"3T    c #8C0000",
"3U    c #490000",
"3V    c #1B0000",
"3W    c #090000",
"3X    c #250000",
"3Y    c #5E0000",
"3Z    c #840000",
"3&    c #7A0000",
"4     c #630000",
"40    c #110000",
"                                                                ",
"   0 1 1 1 1 2 3 4 5 5 5 6 7 8 8 3 9 3 a b b b c d e 1 1 1 1 1 f",
"   1 g g g h i j k l m n o p q r s t u v w x y z A B C g g g g D",
"   1 g g E F G H l I J K L M N O P Q R S T U V W X Y Z C g g g D",
"   1 g &0 00 H010203040506070809090907060a0b0c0d0e0f Z C C g g D",
"   10g W0h G0i0j0k0l0m0n0o0o0o0o0o0o0o0o0o0m0n0p0q0r0s Z0t g g D",
"  0u0v0w G0x0y0z0A0B0B0B0B0B0B0B0B0B0B0B0B0B0B0B0C0c0D0E0t g g D",
"  0F0w0w0G0H0I0J0K0K0K0K0K0K0K0K0K0K0K0K0K0K0K0K0K0L0M0N0O C g D",
"  0P0h G0Q0R0S0T0T0T0T0T0T0T0T0T0T0T0T0T0T0T0T0T0T0S0U0V0W0X g D",
"  0Y0h0Z0&1 101010101010101010101010101010101010101011121314 g D",
"  0P0w15161717171717171717171717171717171717171717171718191a g D",
"  0P1b1c1d1e1e1e1e1e1e1e1e1e1e1e1e1e1e1e1e1e1e1e1e1e1e1f1g1h1i D",
"  0P1j1k1l1m1m1m1m1m1m1m1m1m1m1m1m1m1m1m1m1m1m1m1m1m1m1m1n1o1p D",
"  0Y1q1r1s1t1t1t1t1t1t1t1t1t1t1t1t1t1t1t1t1t1t1t1t1t1t1t1u1v1w1x",
"  1y1z1A1B1C1C1C1C1C1C1C1C1C1C1C1C1C1C1C1C1C1C1C1C1C1C1C1D1E1F1G",
"  1y1H1I1J1K1K1K1K1K1K1K1K1K1K1K1K1K1K1K1K1K1K1K1K1K1K1L1M1N1O1P",
"  1y1Q1R1S1T1U1U1U1U1U1U1U1U1U1U1U1U1U1U1U1U1U1U1U1U1U1V1W1X1Y1P",
"  1y1Q1Z1&2 202020202020202020202020202020202020202021221Z23 W24",
"  1y1H25262728292a2a2a2a2a2a2a2a2a2a2a2a2a2a2a2a2a292b2c2d2e2f2g",
"  0Y2h2i2i2j2k2l2m2n2n2n2n2n2n2n2n2n2n2n2n2n2n2o2o2p2q2i2r2s2t D",
"  0P2u2v2w2w2w2x2y2z2A2A2A2A2A2A2A2A2A2A2A2A2B2C2D2E2w2w2F2G Y D",
"  0P2H2I2J2K2K2K2L2M2N2O2P2P2P2P2P2P2P2P2Q2R2S2T2K2K2K2K2U2V0t D",
"  0P0w2W2X2Y2Y2Y2Y2Z2Z2X2&3 303131313233342Z2Z2Y2Y2Y2Y353637 g D",
"  380h0w393a3b3b3b3b3b3b3b3b3b3b3b3b3b3b3b3b3b3b3b3b3a2Y F3c g D",
"   2 H3d3e2Y3f3g3g3g3g3g3g3g3g3g3g3g3g3g3g3g3g3g3g3g3h2h3i g g D",
"   13j3k3l1z3m3n3m3m3m3m3m3m3m3m3m3m3m3m3m3m3m3m3m3o233p3q g g D",
"   13r3c3s3t2s3u3v3w3w3w3w3w3w3w3w3w3w3w3w3w3w3v3x3y3z0g g g g D",
"   1 g C Z3A2f3B3o3C3D3D3D3D3D3D3D3D3D3D3D3D3E3F3G1O1i g g g g D",
"   1 g g g g C0s3H2d3I3J3K3L3M3M3M3M3M3K3L3E2J003k3A g g g g g D",
"   1 g g g g g g3N3O2u2v3o3P3Q3Q3Q3Q3K3R3S3T3U3V C g g g g g g D",
"   1 g g g g g g g g3W3X3d3Y002u3Z3&4 1F0f40 g g g g g g g g g D",
"   1 g g g g g g g g g g0t1i3N E E3N &3s g g g g g g g g g g g D"};

