/* XPM */
static const char *ClientTsFrm_frmNewForm_XPM[]={
/* ClientTsFrm_frmNewForm */
"16 16 72 2",
"      c None",
" 0    c #4C4B4B",
" 1    c #4A4949",
" 2    c #353333",
" 3    c #181616",
" 4    c #020101",
" 5    c #070505",
" 6    c #171414",
" 7    c #080505",
" 8    c #030000",
" 9    c #020000",
" a    c #010000",
" b    c #141212",
" c    c #040202",
" d    c #3C3B3B",
" e    c #787978",
" f    c #606060",
" g    c #2A2A2A",
" h    c #989998",
" i    c #4F4F4F",
" j    c #383838",
" k    c #7B7B7C",
" l    c #353635",
" m    c #6E6E6E",
" n    c #6F6F6E",
" o    c #9A999A",
" p    c #292928",
" q    c #0A0A0A",
" r    c #737372",
" s    c #807F7F",
" t    c #737273",
" u    c #A5A4A5",
" v    c #ACACAC",
" w    c #222221",
" x    c #969695",
" y    c #9E9E9E",
" z    c #7B7A7B",
" A    c #080808",
" B    c #676667",
" C    c #929292",
" D    c #1A1B1A",
" E    c #7C7D7C",
" F    c #868686",
" G    c #2F2E2F",
" H    c #4D4E4C",
" I    c #151514",
" J    c #5E5F5D",
" K    c #707070",
" L    c #161716",
" M    c #525251",
" N    c #131312",
" O    c #414140",
" P    c #242424",
" Q    c #3E3E3E",
" R    c #121211",
" S    c #2F2F2E",
" T    c #1E1E1E",
" U    c #040404",
" V    c #2D2D2D",
" W    c #131413",
" X    c #222322",
" Y    c #212121",
" Z    c #020202",
" &    c #2C2C2C",
"0     c #2F2F2F",
"00    c #262626",
"01    c #202020",
"02    c #1F1F1F",
"03    c #161616",
"04    c #181818",
"05    c #070707",
"06    c #010101",
"             0 1 2 3 4          ",
"         5 6 7 8 9 8 9 9        ",
"       a 9 9 a       a 9 9      ",
"       b a               c d    ",
"     e f                 g h i  ",
"   j k l                   m n  ",
"   o n p                 q r s t",
"   u v w                   x y z",
" A B C D                   E F G",
"   H m I                   J K L",
"     M N                   O P  ",
"     Q R                   S T  ",
"   U V W                   X Y  ",
"       Z   U V &0 00            ",
"            01020304 A          ",
"              05 A06            "};

