/* XPM */
static char * brasil_xpm[] = {
"32 32 288 2",
"  	c None",
". 	c #74BF98",
"+ 	c #81C5A2",
"@ 	c #7DC29F",
"# 	c #81C4A2",
"$ 	c #81C4A1",
"% 	c #80C4A1",
"& 	c #7DC29E",
"* 	c #78C09B",
"= 	c #7BC19E",
"- 	c #7BC29E",
"; 	c #79C09B",
"> 	c #A1D1A2",
", 	c #9FD1A2",
"' 	c #71BD95",
") 	c #73BE96",
"! 	c #86C595",
"~ 	c #D0E38C",
"{ 	c #FAF275",
"] 	c #FAF176",
"^ 	c #CEE28D",
"/ 	c #84C595",
"( 	c #71BC95",
"_ 	c #6AB991",
": 	c #6BBA91",
"< 	c #6AB990",
"[ 	c #67B88E",
"} 	c #A9D391",
"| 	c #E4E97A",
"1 	c #FDF266",
"2 	c #FCF265",
"3 	c #FCF165",
"4 	c #E3E97A",
"5 	c #61B58A",
"6 	c #60B589",
"7 	c #60B489",
"8 	c #5EB487",
"9 	c #7CC086",
"0 	c #CBDF7E",
"a 	c #FBF05F",
"b 	c #E6DF71",
"c 	c #B8BC8F",
"d 	c #A6AD9D",
"e 	c #A7AE9D",
"f 	c #BABD8E",
"g 	c #E8E270",
"h 	c #C8DF7F",
"i 	c #7CC085",
"j 	c #59B184",
"k 	c #57B182",
"l 	c #56B182",
"m 	c #56B07E",
"n 	c #93C980",
"o 	c #E5E860",
"p 	c #FAEE54",
"q 	c #BBBF89",
"r 	c #6B7C9F",
"s 	c #4763A6",
"t 	c #4761A5",
"u 	c #4864A6",
"v 	c #6F7F9E",
"w 	c #C3C585",
"x 	c #FCF153",
"y 	c #E6E860",
"z 	c #59B183",
"A 	c #4EAC7B",
"B 	c #4BAB79",
"C 	c #4AAA77",
"D 	c #6AB777",
"E 	c #CFDF68",
"F 	c #FBEF4A",
"G 	c #FCEF48",
"H 	c #C5C87E",
"I 	c #495FA3",
"J 	c #3F5CA2",
"K 	c #3A57A0",
"L 	c #3A58A0",
"M 	c #3A59A0",
"N 	c #3A559E",
"O 	c #C7C875",
"P 	c #FCEF47",
"Q 	c #D0E068",
"R 	c #69B778",
"S 	c #49AA77",
"T 	c #45A875",
"U 	c #42A772",
"V 	c #40A671",
"W 	c #3DA46F",
"X 	c #98C96F",
"Y 	c #E1E553",
"Z 	c #FBED3B",
"` 	c #F9EE5A",
" .	c #BACDB5",
"..	c #94B8BE",
"+.	c #95B8BF",
"@.	c #96B3C3",
"#.	c #8DA0C6",
"$.	c #4866A4",
"%.	c #3655A0",
"&.	c #2F4F9B",
"*.	c #2F509B",
"=.	c #6A7A8D",
"-.	c #EEE44F",
";.	c #E1E554",
">.	c #9ACA6F",
",.	c #45A975",
"'.	c #38A26B",
").	c #37A26A",
"!.	c #38A26A",
"~.	c #6BB769",
"{.	c #CEDE58",
"].	c #FBEC30",
"^.	c #FBED30",
"/.	c #C0C15E",
"(.	c #405D9E",
"_.	c #2C4D9A",
":.	c #30519A",
"<.	c #4B67A6",
"[.	c #778CBA",
"}.	c #8BAFBB",
"|.	c #93B5BF",
"1.	c #5475A7",
"2.	c #2E4E99",
"3.	c #355093",
"4.	c #C4C357",
"5.	c #FCED30",
"6.	c #D0DE57",
"7.	c #6DB869",
"8.	c #2C9C62",
"9.	c #279A5F",
"0.	c #71B966",
"a.	c #ECE733",
"b.	c #FBEB22",
"c.	c #FBEB20",
"d.	c #FCEC1F",
"e.	c #A5AB5E",
"f.	c #173B8F",
"g.	c #12378D",
"h.	c #163A8F",
"i.	c #17398E",
"j.	c #12358C",
"k.	c #1E3F92",
"l.	c #3D5F9E",
"m.	c #78A1B0",
"n.	c #85ACB6",
"o.	c #284693",
"p.	c #ADB057",
"q.	c #ECE734",
"r.	c #76BB64",
"s.	c #25995D",
"t.	c #1F9759",
"u.	c #299B5C",
"v.	c #9BC856",
"w.	c #E6E42F",
"x.	c #FBEB18",
"y.	c #ADB050",
"z.	c #15398B",
"A.	c #11388E",
"B.	c #0E348C",
"C.	c #0D338C",
"D.	c #14398F",
"E.	c #143A8F",
"F.	c #0A3189",
"G.	c #0F318B",
"H.	c #43679F",
"I.	c #92B4B8",
"J.	c #D5D359",
"K.	c #E8E52D",
"L.	c #9DCA55",
"M.	c #2B9C5C",
"N.	c #1E9658",
"O.	c #1D9557",
"P.	c #209755",
"Q.	c #51AB52",
"R.	c #D7DF3E",
"S.	c #FBEB1B",
"T.	c #FBEB16",
"U.	c #CFCA3D",
"V.	c #304C87",
"W.	c #153A8F",
"X.	c #11378D",
"Y.	c #082F89",
"Z.	c #10368D",
"`.	c #12388E",
" +	c #083088",
".+	c #082E88",
"++	c #173A90",
"@+	c #5D7798",
"#+	c #ECE244",
"$+	c #FBEB1A",
"%+	c #DBE13D",
"&+	c #54AB52",
"*+	c #219756",
"=+	c #22985B",
"-+	c #1B9556",
";+	c #1C9556",
">+	c #1B9555",
",+	c #1E9652",
"'+	c #77BA55",
")+	c #E3E32A",
"!+	c #FAEA17",
"~+	c #F9E91D",
"{+	c #7E8A64",
"]+	c #0B2E88",
"^+	c #0B318A",
"/+	c #10358D",
"(+	c #13398E",
"_+	c #193C90",
":+	c #869261",
"<+	c #F8E91A",
"[+	c #E6E428",
"}+	c #79BB54",
"|+	c #1E9653",
"1+	c #1B9455",
"2+	c #23975B",
"3+	c #21975A",
"4+	c #1A9455",
"5+	c #1A9555",
"6+	c #199454",
"7+	c #179352",
"8+	c #4EA951",
"9+	c #BFD540",
"0+	c #FCEA12",
"a+	c #E9DD29",
"b+	c #495E7F",
"c+	c #052784",
"d+	c #062D88",
"e+	c #072E88",
"f+	c #0F358D",
"g+	c #0B308A",
"h+	c #4F6683",
"i+	c #EBDF26",
"j+	c #FBEB12",
"k+	c #C4D73E",
"l+	c #53AB50",
"m+	c #179353",
"n+	c #209659",
"o+	c #1F9559",
"p+	c #189454",
"q+	c #11904F",
"r+	c #74B850",
"s+	c #D7DE30",
"t+	c #F5E620",
"u+	c #AAAD56",
"v+	c #485C73",
"w+	c #384D7C",
"x+	c #394E7C",
"y+	c #4A5E72",
"z+	c #B1B253",
"A+	c #F7E81E",
"B+	c #DADF2E",
"C+	c #7ABB4F",
"D+	c #129150",
"E+	c #1E9557",
"F+	c #189353",
"G+	c #189354",
"H+	c #159251",
"I+	c #3AA150",
"J+	c #C9DA3D",
"K+	c #F9EA19",
"L+	c #EFE227",
"M+	c #DED531",
"N+	c #DFD631",
"O+	c #F0E326",
"P+	c #FAEA16",
"Q+	c #D0DC3B",
"R+	c #3EA350",
"S+	c #169250",
"T+	c #1E9457",
"U+	c #169352",
"V+	c #14914E",
"W+	c #60B155",
"X+	c #D5DD2C",
"Y+	c #F9E915",
"Z+	c #F9E914",
"`+	c #DADE29",
" @	c #68B455",
".@	c #16924F",
"+@	c #169252",
"@@	c #1E9456",
"#@	c #139150",
"$@	c #38A051",
"%@	c #A1CA4C",
"&@	c #A9CD4B",
"*@	c #3EA251",
"=@	c #1E9357",
"-@	c #127642",
";@	c #117441",
"                                                                ",
"                                                                ",
"                                                                ",
"                                                                ",
"                                                                ",
"  . + + + + + + + + + + + + + + + + + + + + + + + + + + + + .   ",
"  @ # $ % $ # $ # # # # # # $ # $ $ # # # # # % # # # # # $ &   ",
"  * = = - - - = = = = = = = ; > , * - = = = = - = - = - = = *   ",
"  ' ) ) ) ) ) ) ) ) ) ) ' ! ~ { ] ^ / ( ) ) ) ) ) ) ) ) ) ) '   ",
"  _ : : : : : : : : < [ } | 1 2 3 1 4 } [ < : : : : : : : : _   ",
"  5 6 6 6 6 6 6 7 8 9 0 a b c d e f g a h i 8 7 6 6 6 6 6 6 5   ",
"  j k k k k k l m n o p q r s t t u v w x y n m l k k k k k z   ",
"  A B B B B C D E F G H I t J K L M M N O P F Q R S B B B B A   ",
"  T U U V W X Y Z Z `  ...+.@.#.$.%.&.*.=.-.Z Z ;.>.W V U U ,.  ",
"  '.).!.~.{.].].].^./.(._.:.<.[.}.|.1.2.3.4.].].].5.6.7.!.).'.  ",
"  8.9.0.a.b.c.c.c.d.e.f.g.h.i.j.k.l.m.n.o.p.c.c.c.c.b.q.r.9.8.  ",
"  s.t.u.v.w.x.x.x.x.y.z.A.B.C.D.E.F.G.H.I.J.x.x.x.x.K.L.M.t.s.  ",
"  s.N.O.P.Q.R.S.T.T.U.V.W.X.Y.Z.`. +.+++@+#+T.T.$+%+&+*+O.N.s.  ",
"  =+-+-+;+>+,+'+)+!+~+{+]+g.B.^+/+/+(+_+:+<+T.[+}+|+1+-+;+-+2+  ",
"  3+4+5+4+4+6+7+8+9+0+a+b+c+d+d+e+f+g+h+i+j+k+l+m+6+4+4+5+4+n+  ",
"  o+p+p+p+p+p+p+m+q+r+s+t+u+v+w+x+y+z+A+B+C+D+m+p+p+p+p+p+p+o+  ",
"  E+F+F+F+F+G+G+F+F+H+I+J+K+L+M+N+O+P+Q+R+S+m+F+F+F+F+F+G+G+E+  ",
"  T+m+m+m+m+m+m+m+m+m+U+V+W+X+Y+Z+`+ @.@+@m+m+m+m+m+m+m+m+m+T+  ",
"  @@m+m+m+m+m+m+m+m+m+m++@#@$@%@&@*@#@+@m+m+m+m+m+m+m+m+m+m+@@  ",
"  =@m+m+m+m+m+m+m+m+m+m+m+m+m+m+m+m+m+m+m+m+m+m+m+m+m+m+m+m+=@  ",
"  =@t.t.t.t.t.t.t.t.t.t.t.t.t.t.t.t.t.t.t.t.t.t.t.t.t.t.t.t.T+  ",
"  -@;@;@;@;@;@;@;@;@;@;@;@;@;@;@;@;@;@;@;@;@;@;@;@;@;@;@;@;@-@  ",
"                                                                ",
"                                                                ",
"                                                                ",
"                                                                ",
"                                                                "};
