/* XPM */
static char * connect_xpm[] = {
/* columns rows colors chars-per-pixel */
"75 75 256 2",
"   c #010101",
".  c #08090B",
"X  c #131418",
"o  c #0D0F12",
"O  c #0C1A3A",
"+  c #161A24",
"@  c #1D2129",
"#  c #262529",
"$  c #2E2F36",
"%  c #211E21",
"&  c #5C2707",
"*  c #593014",
"=  c #642B01",
"-  c #642D08",
";  c #6C3201",
":  c #68380C",
">  c #733501",
",  c #743B01",
"<  c #7B3D01",
"1  c #753B09",
"2  c #612E12",
"3  c #663416",
"4  c #753913",
"5  c #513A2C",
"6  c #6E3E23",
"7  c #7C4502",
"8  c #77450B",
"9  c #6A431B",
"0  c #784916",
"q  c #6F440C",
"w  c #594431",
"e  c #684628",
"r  c #774A25",
"t  c #7A5729",
"y  c #775939",
"u  c #6C4E37",
"i  c #776136",
"p  c #0F1D41",
"a  c #111E43",
"s  c #0D2149",
"d  c #142245",
"f  c #1C2A4C",
"g  c #162549",
"h  c #1B2A52",
"j  c #152752",
"k  c #373D47",
"l  c #233353",
"z  c #2B3D5A",
"x  c #273758",
"c  c #26324E",
"v  c #2C3B63",
"b  c #33435B",
"n  c #384658",
"m  c #304059",
"M  c #3A4D65",
"N  c #364867",
"B  c #3E5168",
"V  c #36496D",
"C  c #5A4A48",
"Z  c #534D58",
"A  c #58535A",
"S  c #4C4A50",
"D  c #665448",
"F  c #695957",
"G  c #6C5343",
"H  c #71654F",
"J  c #44556B",
"K  c #5C5C6A",
"L  c #575766",
"P  c #435672",
"I  c #455A73",
"U  c #4A5D75",
"Y  c #4A5A7A",
"T  c #4A5670",
"R  c #665D67",
"E  c #4E637A",
"W  c #4A6177",
"Q  c #52657C",
"!  c #546B7D",
"~  c #586778",
"^  c #566672",
"/  c #64636C",
"(  c #68696D",
")  c #6C6C73",
"_  c #676978",
"`  c #73737A",
"'  c #716D72",
"]  c #843D04",
"[  c #843D0A",
"{  c #813F10",
"}  c #874604",
"|  c #974B03",
" . c #8D5B02",
".. c #875404",
"X. c #985506",
"o. c #855714",
"O. c #955617",
"+. c #A45C11",
"@. c #926201",
"#. c #9B6A03",
"$. c #82601C",
"%. c #A36902",
"&. c #AA7602",
"*. c #BA7702",
"=. c #A5631A",
"-. c #B5750E",
";. c #835529",
":. c #865935",
">. c #955A23",
",. c #9A663B",
"<. c #92632D",
"1. c #A8682B",
"2. c #B77828",
"3. c #A46A37",
"4. c #AF7338",
"5. c #B37839",
"6. c #B16F27",
"7. c #C27C00",
"8. c #865D44",
"9. c #87644B",
"0. c #986847",
"q. c #8A6754",
"w. c #947156",
"e. c #A67649",
"r. c #B47C46",
"t. c #A2714B",
"y. c #8D7571",
"u. c #A17D62",
"i. c #BC8402",
"p. c #BE812F",
"a. c #CD8B01",
"s. c #C88706",
"d. c #D39401",
"f. c #DA9D02",
"g. c #D69A09",
"h. c #C98A18",
"j. c #CE911B",
"k. c #D29616",
"l. c #CE9005",
"z. c #DEA302",
"x. c #DCA209",
"c. c #E0A701",
"v. c #CE9327",
"b. c #D09627",
"n. c #CD9637",
"m. c #D19A37",
"M. c #C68A2E",
"N. c #B98857",
"B. c #B5824C",
"V. c #B58E6B",
"C. c #C38C45",
"Z. c #C89349",
"A. c #C99758",
"S. c #C69350",
"D. c #C89A67",
"F. c #C59D76",
"G. c #CFA672",
"H. c #505C83",
"J. c #566C82",
"K. c #5A6D83",
"L. c #576785",
"P. c #5B7384",
"I. c #5E7489",
"U. c #5F7889",
"Y. c #647484",
"T. c #637A8C",
"R. c #6C7C8B",
"E. c #677789",
"W. c #787A87",
"Q. c #6B7D93",
"!. c #697795",
"~. c #767D99",
"^. c #656C8B",
"/. c #767DA1",
"(. c #76828C",
"). c #748393",
"_. c #7A8694",
"`. c #7C8A96",
"'. c #738499",
"]. c #7C8B9A",
"[. c #78879A",
"{. c #738697",
"}. c #7C83A3",
"|. c #868588",
" X c #828E9C",
".X c #878A96",
"XX c #85929E",
"oX c #89929B",
"OX c #969499",
"+X c #958995",
"@X c #AB9490",
"#X c #8595A2",
"$X c #8A95A2",
"%X c #8D9AA5",
"&X c #8C99A9",
"*X c #919BA5",
"=X c #929DAA",
"-X c #9999A6",
";X c #868CA5",
":X c #A599A8",
">X c #AB9FB3",
",X c #96A1AC",
"<X c #9AA3AE",
"1X c #9BA6B0",
"2X c #9DA8B3",
"3X c #A8A8AA",
"4X c #A2ABB5",
"5X c #AAA8B7",
"6X c #ABB3BC",
"7X c #A6B0BA",
"8X c #B5B5B9",
"9X c #BFABA5",
"0X c #BEA696",
"qX c #D9B589",
"wX c #D8BA96",
"eX c #CBAC90",
"rX c #D4BCA9",
"tX c #C8B9B8",
"yX c #CAB5A9",
"uX c #C09C80",
"iX c #DFC19A",
"pX c #DAC5B4",
"aX c #E2C8A5",
"sX c #AEB7C1",
"dX c #B3BBC4",
"fX c #B8B9C5",
"gX c #B4AFCE",
"hX c #BFBDE1",
"jX c #C4BDCF",
"kX c #BCC3CB",
"lX c #BAC1C8",
"zX c #C2C6CC",
"xX c #C8C8CA",
"cX c #C4CBD2",
"vX c #C9CED5",
"bX c #CDD3D9",
"nX c #CCD1D6",
"mX c #D2D6DB",
"MX c #D4D9DE",
"NX c #D7D6D7",
"BX c #D6CCCB",
"VX c #E3D6CF",
"CX c #DBDEE2",
"ZX c #D4D7E3",
"AX c #CCCAE5",
"SX c #DEE2E6",
"DX c #E2E3E4",
"FX c #E3E6EA",
"GX c #EAEBEC",
"HX c #E6E9EC",
"JX c #F3F3F4",
"KX c #FDFDFD",
"LX c #F5F5FB",
"PX c #EBEBF2",
"IX c #EBE0D7",
"UX c None",
/* pixels */
"UXUXUXUXUXUXUXUXUXUXUXUXUXUXUXUXUXUXUXUXUXUXUXUXUXUXUXUXUXUXUXUXUXUXUXUXUXUXUXUXUXUXUXUXUXUXUXUXUXUXUXUXUXUXUXUXUXUXUXUXUXUXUXUXUXUXUXUXUXUXUXUXUXUXUX",
"UXUXUXUXUXUXUXUXUXUXUXUXUXUXUXUXUXUXUXUXUXUXUXUXUXUXUXUXUXUXUXUXUXUXUXUXUXUXUXUXUXUXUXUXUXUXUXUXUXUXUXUXUXUXUXUXUXUXUXUXUXUXUXUXUXUXUXUXUXUXUXUXUXUXUX",
"UXUXUXUXUXUXUXUXUXUXUXUXUXUXUXUXUXUXUXUXUXUXUXUXUXUXUXUXUXUXUXUXUXUXUXUXUXUXUXUXUXUXUXUXUXUXUXUXUXUXUXUXUXUXUXUXUXUXUXUXUXUXUXUXUXUXUXUXUXUXUXUXUXUXUX",
"UXUXUXUXUXUXUXUXUXUXUXUXUXUXUXUXUXUXUXUXUXUXUXUXUXUXUXUXUXO O a x J Y H.Y P N h s s j s UXUXUXUXUXUXUXUXUXUXUXUXUXUXUXUXUXUXUXUXUXUXUXUXUXUXUXUXUXUXUX",
"UXUXUXUXUXUXUXUXUXUXUXUXUXUXUXUXUXUXUXUXUXUXUXUXUXUXO h J ~.sXZXHXJXLXJXJXPXFXZXsX~.Y x d d O O UXUXUXUXUXUXUXUXUXUXUXUXUXUXUXUXUXUXUXUXUXUXUXUXUXUXUX",
"UXUXUXUXUXUXUXUXUXUXUXUXUXUXUXUXUXUXUXUXUXUXUXUXp b $XnXCXDXFXHXHXHXHXPXPXFXFXDXCXCXZXcX$Xn g d d p UXUXUXUXUXUXUXUXUXUXUXUXUXUXUXUXUXUXUXUXUXUXUXUXUX",
"UXUXUXUXUXUXUXUXUXUXUXUXUXUXUXUXUXUXUXUXUXUXO f ;XzXmXmXMXCXDXSXFXHXHXHXFXFXFXSXSXCXZXbXvXlX[.x d d a O UXUXUXUXUXUXUXUXUXUXUXUXUXUXUXUXUXUXUXUXUXUXUX",
"UXUXUXUXUXUXUXUXUXUXUXUXUXUXUXUXUXUXUXUXUXa T 5XkXcXvXmXMXCXDXDXFXFXFXFXFXSXSXCXMXMXbXnXcXkXlX7XL.f d d a UXUXUXUXUXUXUXUXUXUXUXUXUXUXUXUXUXUXUXUXUXUX",
"UXUXUXUXUXUXUXUXUXUXUXUXUXUXUXUXUXUXUXO g _.6XdXlXkXcXbXbXMXSXSXSXSXSXSXSXCXMXNXmXnXbXvXcXkXlXlXsX Xx f g a O UXUXUXUXUXUXUXUXUXUXUXUXUXUXUXUXUXUXUXUX",
"UXUXUXUXUXUXUXUXUXUXUXUXUXUXUXUXUXUXO g R.5X5XdXkXcXcXcXbXMXMXMXCXCXSXSXCXMXmXbXnXcXvXvXcXkXlXsX6X7X Xz c g d O UXUXUXUXUXUXUXUXUXUXUXUXUXUXUXUXUXUXUX",
"UXUXUXUXUXUXUXUXUXUXUXUXUXUXUXUXUXO d K.-X4X7XsXkXkXcXcXbXbXMXMXMXMXMXMXMXbXnXnXvXvXcXcXkXkX8X8X7X5X4X).z c g d O UXUXUXUXUXUXUXUXUXUXUXUXUXUXUXUXUXUX",
"UXUXUXUXUXUXUXUXUXUXUXUXUXUXUXUXO d U %X1X4X7X6XdXkXcXcXcXcXbXbXbXbXbXbXvXcXcXcXkXkXcXkXkXlX6X6X7X4X1X1XK.z x f g a UXUXUXUXUXUXUXUXUXUXUXUXUXUXUXUXUX",
"UXUXUXUXUXUXUXUXUXUXUXUXUXUXUXp d c XX*X,X2X7X7XsXsXlXkXkXcXcXcXcXnXbXkXkXkXkXkXkXkXkXlXdX6X6X7X4X2X<X=X$XM z x f d a UXUXUXUXUXUXUXUXUXUXUXUXUXUXUXUX",
"UXUXUXUXUXUXUXUXUXUXUXUXUXUXp d d W XX*X,X1X2X7X7XsXsXsXkXkXcXcXcXkXkXkXkXkXlXlXkXkXlX6X6X6X7X4X4X1X,X=X$XK.b z l f d O UXUXUXUXUXUXUXUXUXUXUXUXUXUXUX",
"UXUXUXUXUXUXUXUXUXUXUXUXUXO d g c (.XX%X,X,X2X2X7X7X7XsXsXkXkXkXkXkXkXlXkXlXlXkXkXlX7X6X6X7X4X2X2X-X=X&X$X XN b z l g a O UXUXUXUXUXUXUXUXUXUXUXUXUXUX",
"UXUXUXUXUXUXUXUXUXUXUXUXO d g l B `.`.#X%X,X,X2X2X2X7X7XsXdXdXlXkXlXlXlXlXlXsXsXlX7X7X4X4X4X1X<X=X*X%X;X X`.P b b x l d a UXUXUXUXUXUXUXUXUXUXUXUXUXUX",
"UXUXUXUXUXUXUXUXUXUXUXUXd g h m W {.].XX%X%X,X,X1X1X2X7XsXlXsXsXlX6XlX6X8X6X6X7X4X3X4X4X1X1X<X,X=X%X$X X`._.U n b z c f O O UXUXUXUXUXUXUXUXUXUXUXUXUX",
"UXUXUXUXUXUXUXUXUXUXUXg d f m b ! `.`.].XX$X%X*X,X2X7X7X7X7XsX7X7X7X7X7X7X4X1X<X<X<X,X<X,X,X%X%X$XXX X`._.(.^ z b b c c f O O UXUXUXUXUXUXUXUXUXUXUXUX",
"UXUXUXUXUXUXUXUXUXUXUXd f l b b ^ ).`.]. XXXoX%X1X2X2X2X2X2X2X2X2X2X2X1X,X*XOX*X*X*X*X*X%XoXoXXXXX`._._.W.E.T n n b x c g s f UXUXUXUXUXUXUXUXUXUXUXUX",
"UXUXUXUXUXUXUXUXUXUXs d f m M M W (.).`.`. X XXX].,X1X1X2X1X2X2X,X,X,XOXoXoXoXoXoXoX%X%X*X*XoX X_._.W.R.E.) J m z k n 5 5 5 $ @ UXUXUXUXUXUXUXUXUXUXUX",
"UXUXUXUXUXUXUXUXUXj d f z b M M T R.R.)._.`.`.#X&X=X=X,X=X,X*X,X%X%XoXoX X.X_.`..XoXoXoXXXXXXX].W.R.(._ _ ! n n 5 0 7 } 7 7 7 7 q UXUXUXUXUXUXUXUXUXUX",
"UXUXUXUXUXUXUXUXUXd d l z b M B J E.R.).(.).[.$X&X=X&X&X%X%XXXoXXX`.`.(.H G y G ' (.`.].`.].`.`.(.Y._ ~ ~ L 5 q 0 e C A L D u 7 7 : UXUXUXUXUXUXUXUXUX",
"UXUXUXUXUXUXUXUXO s j l N M B B J ~ E.R.(.).].#X%X#X#X%XXXXX X`.`.`.y.0 , , , , 7 9 ' R.(.(.W.(.R.Y.~ ^ D q q A K / _ / ) ) ( u 7 8 UXUXUXUXUXUXUXUXUX",
"UXUXUXUXUXUXUXUXs s f z N M M M B J E.E.E.).}. X].#X].].].`._.(.(.H #.7 , , q , , q 7 u _ ! _ ~ _ _ / 0 q u L / / ) 5XfXfX-X` ^ r 7 UXUXUXUXUXUXUXUXUX",
"UXUXUXUXUXUXUXUXa g l m V W W I M B Q Y.E.].].].].].].].).(.(.R.i @.@.< , , , } } , , , : D ^ ^ K A q 1 C K ( ( .XAXCXvX8X3XjX+XA 7 UXUXUXUXUXUXUXUXUX",
"UXUXUXUXUXUXUXUXd f x N W W W W J B P ~ R.{.{.].{.].{.{.(.(.E.i 7 @.%.< , , , 7 | | 7 , , , 9 L u 1 e A K / ' 8XCX8X+X_ _ W.|.5XR 7 UXUXUXUXUXUXUXUXUX",
"UXUXUXUXUXUXUXj j v V B W W ! W E J P J J.{.{.{.{.).(.(.E.Y.i }  .i.&.| < , < , < } | } , , 7 1 , C L R ) oXfXxXxX5XsX-XW.|.|._ t 5 UXUXUXUXUXUXUXUXUX",
"UXUXUXUXUXUXUXj j m V W W W ! ! ! I J T B U.).{.).(.(.T.P.H ....#.l.%.| , ; > > } 7 , | } , , 9 S L / ( 5XDXCXJXHXhXAX5X|.|./ r 3 g UXUXUXUXUXUXUXUXUX",
"UXUXUXUXUXUXUXj h V V W J.J.! ! ! ! P I I ! (.).(.P.U.Y.H 7 .. .*.i.| X.; = = = ; < ] > 7 } w Z / ( W.5XSXJXKXKXLXAXzX<X.XR 0 w f g UXUXUXUXUXUXUXUXUX",
"UXUXUXUXUXUXUXj j N V W W E ! J.J.J.E I U E ! P.P.P.U.( t @...*.*.s.| | ; = ; = = ; > > : C L / ) oXBXGXLXKXKXKXFXBX3X(.F 0 w z f g O UXUXUXUXUXUXUXUX",
"UXUXUXUXUXUXUXj h V B W J.! J.J.P.P.J.W I ! J.! ! ! ! H  . .#.*.*.a.} | ; = = = = ; > 2 S K ( _ :XCXKXKXKXKXJXNX3XOX` t 0 S M m f d O UXUXUXUXUXUXUXUX",
"UXUXUXUXUXUXUXg h V B J.! J.J.P.J.P.P.P.J.P.P.! ! ! ^ 7  . .*.i.7.l.} | , = = = = - * Z R / W.8XDXKXKXKXPXCXtX-X` F 0 e B B n m c d # UXUXUXUXUXUXUXUX",
"UXUXUXUXUXUXUXj h z N I W E J.P.P.U.U.U.U.P.P.^ ! ^ A  . .#.a.i.7.d. .} ] = = = & 5 A R K OXxXDXLXKXLXGXzXOX|.F 0 0 S z S M n m 5 q 8 y u r 0 8 UXUXUX",
"UXUXUXUXUXUXUXd h v N V P P P W ! U.U.U.U.U.P.P.! ! t @.@.i.a.a.s.d.#., ] ; = & C L K _ 5XxXmXSXGXNXxX8X.X_ e 8 r n n n b M w 8 } r A K K ^ L u ..UXUX",
"UXUXUXUXUXUXUXd h z B B U U W W W P.U.U.U.P.P.P.! ^ o.@.#.d.d.l.s.a.s., ] ; > - Z K W.8XjXBXxXpX8X3XoX` F 1 , 1 n n n b S 0 ..0 G K ( ` ) ` ` K t UXUX",
"UXUXUXUXUXUXUXa h z B P U W E H.! W U.U.U.U.P.P.! H @.@.i.f.d.d.s.s.d.7 ] ; ; - Z _ 3X9X3X3X3X3XOXW.F 9 , , , , w n n q 7 q u K ( ' ' W.3X8XOXW.D UXUX",
"UXUXUXUXUXUXUXd h x B P I E J.E ! ! ! ).U.U.U.P.! i #.&.f.f.f.d.a.7.f.@.> > & = 6 ^.+X:X|.+X+X+X' e > ] } < , , , e 8 7 w A / / ( ` 5X8XOX|.|.W.K UXUX",
"UXUXUXUXUXUXUXUXh x V P W H.J.J.! ! ! E (.U.U.P.! t @.i.z.z.z.d.a.s.d.&.< , = & = ; u ^.' W.W.C 4 1 < ] | } > 1 , , 9 Z K ( ( / .XjX-X_.|.W.|._ F UXUX",
"UXUXUXUXUXUXUXUXh l V P W W H.J.J.J.J.J.U.U.U.U.P.7 @.i.z.c.z.f.d.a.a.a.X.] = & & & = > 6 C 4 [ ] ] ; ] ] | ] > 9 C L / / / _.8X8X<XjXgX5XOX' R 5 UXUX",
"UXUXUXUXUXUXUXUXh h N P W E E J.I.P.U.J.! ! P.U.H @.#.l.c.z.z.f.d.a.s.d.%.| > & & & & & - ] [ [ [ ] [ 1 | | | e L K ( ( ' 3XlX8XzXgXhXgX6X|.( 9 UXUXUX",
"UXUXUXUXUXUXUXUXh x v V H.J.J.H.J.I.I.I.I.I.L.H.H @.#.f.z.c.c.z.d.a.7.d.-.| | - & & & & & - [ [ [ [ [ 1 | } C A K / ' |.6XBXGXJXJXAXZXxX%XH q UXUXUXUX",
"UXUXUXUXUXUXUXUXUXh v V I H.J.J.I.I.U.I.T.U.P.J.D @.&.z.c.c.z.z.d.d.s.s.s.X.| 4 & & & & & & 2 [ [ [ | 4 e Z / ) ' ` -XNXGXKXKXKXJXNX8X|.y 1 UXUXUXUXUX",
"UXUXUXUXUXUXUXUXUXx v V I H.P.I.I.!.I.'.R.T.U.P.i @.&.z.z.c.c.z.g.d.s.s.g.%.X.} 2 & * & 2 2 2 2 { [ 0 C K _ ' ` OXzXGXKXKXKXKXHXlXOXH } UXUXUXUXUXUXUX",
"UXUXUXUXUXUXUXUXUXUXv v B L.J.I.I.U.!.T.Q.T.T.U.t @.&.z.z.c.c.x.f.g.l.h.h.7.O.O.- 2 2 2 2 2 2 2 4 e Z ( ' W.` 3XxXJXKXKXKXKXNX8Xy.:.8 UXUXUXUXUXUXUXUX",
"UXUXUXUXUXUXUXUXUXUXv v V H.L.I.T.T.).Q.T.Q.R.T.t @.&.f.x.c.c.c.g.g.l.s.h.k.=.+.O.2 3 3 2 2 2 3 C L ' ` (.OXlXNXLXKXKXLXDXxXOX9.o.q UXUXUXUXUXUXUXUXUX",
"UXUXUXUXUXUXUXUXUXUXUXv V B L.U.T.Q.Q.Q.Q.T.E.T.t @.&.d.g.x.g.x.x.g.k.k.s.h.-.+.+.4 2 4 3 3 6 L / W.W..X8XBXGXKXKXJXDXxX5Xy.;.7 * UXUXUXUXUXUXUXUXUXUX",
"UXUXUXUXUXUXUXUXUXUXUXv V V H.I.!.'.'.{.Q.Q.!.^.t @.%.l.g.x.x.g.k.k.g.k.j.h.j.+.=.O.3 3 { 6 Z R ` W.-X5XxXDXJXGXNXBX8X|.9.0 8 * UXUXUXUXUXUXUXUXUXUXUX",
"UXUXUXUXUXUXUXUXUXUXUXUXV V V J.I.'.'.'.Q.Q.T.!.:. .@.l.g.g.g.k.x.k.k.k.j.h.h.h.=.1.>.3 6 6 L H.W.OX3XtXxXNXNXBX8X-Xu.;.0 8 3 UXUXUXUXUXUXUXUXUXUXUXUX",
"UXUXUXUXUXUXUXUXUXUXUXUXUXV Y H.!.!.'.~.'.'.{.'.:.7 #.i.l.k.g.g.k.k.k.j.k.k.2.b.2.1.1.>.6 6 F ^.|.OX:X8XjXjXjX+Xu.4.=.O.0 } UXUXUXUXUXUXUXUXUXUXUXUXUX",
"UXUXUXUXUXUXUXUXUXUXUXUXUXUXP H.H.!.!.Q.'.'.{.].y. .$.i.l.h.k.k.k.k.k.k.b.b.k.b.b.5.1.1.,.;.u R ^.W.+X3X>X+Xy.,.1.>.6.>.0 ;.UXUXUXUXUXUXUXUXUXUXUXUXUX",
"UXUXUXUXUXUXUXUXUXUXUXUXUXUXP H.L.!./.!.'.'.'.].(. . .&.h.s.k.j.b.k.k.b.b.b.2.b.v.m.6.4.4.,.6 8.q.q.W.W.q.0.:.,.3.1.4.1.0 ;.UXUXUXUXUXUXUXUXUXUXUXUXUX",
"UXUXUXUXUXUXUXUXUXUXUXUXUXUXUXH.H.L.!./.'.'.}.#X.X$.o.#.s.h.h.h.k.k.j.b.b.b.m.n.n.n.C.r.4.r.t.8.8.,.0.0.,.3.,.,.4.4.5.6.;.;.UXUXUXUXUXUXUXUXUXUXUXUXUX",
"UXUXUXUXUXUXUXUXUXUXUXUXUXUXUXUXL.L.!.!.}.;X].#XXX9.o.@.i.v.h.v.b.b.k.b.b.m.m.m.n.Z.C.C.r.r.N.r.8.8.0.t.t.t.0.,.r.5.5.4.;.;.UXUXUXUXUXUXUXUXUXUXUXUXUX",
"UXUXUXUXUXUXUXUXUXUXUXUXUXUXUXUXUXL.^.!.'.&X&X&X].V.o. .6.h.h.h.2.b.b.m.m.m.m.m.m.Z.C.C.r.r.N.N.r.0.8.0.t.t.0.0.r.5.B.5.:.;.UXUXUXUXUXUXUXUXUXUXUXUXUX",
"UXUXUXUXUXUXUXUXUXUXUXUXUXUXUXUXUXUXY !.!.}.}.&X2X].H 0 o.h.h.h.b.b.b.m.m.m.m.Z.C.S.Z.A.D.S.S.N.D.N.w.8.q.0.q.0.e.t.C.r.:.:.UXUXUXUXUXUXUXUXUXUXUXUXUX",
"UXUXUXUXUXUXUXUXUXUXUXUXUXUXUXUXUXUXUXUXL./././.].7X*X0 0 =.6.2.2.2.m.2.n.Z.Z.Z.S.S.A.A.G.uXD.D.N.D.D.u.q.q.q.q.9.e.S.B.:.u UXUXUXUXUXUXUXUXUXUXUXUXUX",
"UXUXUXUXUXUXUXUXUXUXUXUXUXUXUXUXUXUXUXUXUXU ~./.}.&X1Xq.4 r >.6.2.5.2.Z.Z.Z.Z.Z.A.A.A.A.G.qXeXG.F.D.D.D.D.u.w.q.w.N.S.r.9.e UXUXUXUXUXUXUXUXUXUXUXUXUX",
"UXUXUXUXUXUXUXUXUXUXUXUXUXUXUXUXUXUXUXUXUXUXS K./.;X;X-X;.0 r >.5.2.5.C.C.Z.Z.A.A.A.G.G.qXiXqXeXeXeXF.D.D.D.D.D.V.A.D.t.G UXUXUXUXUXUXUXUXUXUXUXUXUXUX",
"UXUXUXUXUXUXUXUXUXUXUXUXUXUXUXUXUXUXUXUXUXUXUXk J ^./.;Xy.r ;.;.5.r.C.C.Z.Z.A.A.A.D.G.G.qXiXiXwXeXyXyXeXF.F.D.D.D.D.A.q.5 UXUXUXUXUXUXUXUXUXUXUXUXUXUX",
"UXUXUXUXUXUXUXUXUXUXUXUXUXUXUXUXUXUXUXUXUXUXUXUXk k S ^.~.' r r 3.3.e.B.A.A.D.D.G.G.G.qXiXiXiXaXrXyXrXrXrX0X@XV.V.u.w.9.UXUXUXUXUXUXUXUXUXUXUXUXUXUXUX",
"UXUXUXUXUXUXUXUXUXUXUXUXUXUXUXUXUXUXUXUXUXUXUXUX# $ c k n L F y :.0.e.u.D.V.D.G.qXqXqXwXiXaXaXaXpXrXyXpXpXVXtX:X:X+X|.UXUXUXUXUXUXUXUXUXUXUXUXUXUXUXUX",
"UXUXUXUXUXUXUXUXUXUXUXUXUXUXUXUXUXUXUXUXUXUXUXUXUX@ @ $ $ k k C 8.8.q.t.N.F.F.uXuXuXeXwXrXaXaXpXpXtXVXVXVXjXjX>X:XOX5 UXUXUXUXUXUXUXUXUXUXUXUXUXUXUXUX",
"UXUXUXUXUXUXUXUXUXUXUXUXUXUXUXUXUXUXUXUXUXUXUXUXUXUXX + @ # $ c k 6 q.q.y.u.uXuXeXyXrXrXpXBXVXIXVXVXVXjXjXgX>X:Xy.# UXUXUXUXUXUXUXUXUXUXUXUXUXUXUXUXUX",
"UXUXUXUXUXUXUXUXUXUXUXUXUXUXUXUXUXUXUXUXUXUXUXUXUXUXo o X X + @ @ # $ F q.u.y.+X@XyXyXpXBXjXjXjXjXjXgXgX5X+XZ % UXUXUXUXUXUXUXUXUXUXUXUXUXUXUXUXUXUXUX",
"UXUXUXUXUXUXUXUXUXUXUXUXUXUXUXUXUXUXUXUXUXUXUXUXUXUXUX. o o o X X @ + % # $ C R y.@X:X>X5X>X5X>X:X+X' S %       UXUXUXUXUXUXUXUXUXUXUXUXUXUXUXUXUXUXUX",
"UXUXUXUXUXUXUXUXUXUXUXUXUXUXUXUXUXUXUXUXUXUXUXUXUXUXUXUXUX. . o o o X o o . o   . X % # # # # % .               UXUXUXUXUXUXUXUXUXUXUXUXUXUXUXUXUXUXUX",
"UXUXUXUXUXUXUXUXUXUXUXUXUXUXUXUXUXUXUXUXUXUXUXUXUXUXUXUXUXUXUX  . . . . . .   .                             UXUXUXUXUXUXUXUXUXUXUXUXUXUXUXUXUXUXUXUXUX",
"UXUXUXUXUXUXUXUXUXUXUXUXUXUXUXUXUXUXUXUXUXUXUXUXUXUXUXUXUXUXUXUXUXUX                                UXUXUXUXUXUXUXUXUXUXUXUXUXUXUXUXUXUXUXUXUXUXUXUXUX",
"UXUXUXUXUXUXUXUXUXUXUXUXUXUXUXUXUXUXUXUXUXUXUXUXUXUXUXUXUXUXUXUXUXUXUXUXUXUXUXUXUXUXUXUXUXUXUXUXUXUXUXUXUXUXUXUXUXUXUXUXUXUXUXUXUXUXUXUXUXUXUXUXUXUXUX",
"UXUXUXUXUXUXUXUXUXUXUXUXUXUXUXUXUXUXUXUXUXUXUXUXUXUXUXUXUXUXUXUXUXUXUXUXUXUXUXUXUXUXUXUXUXUXUXUXUXUXUXUXUXUXUXUXUXUXUXUXUXUXUXUXUXUXUXUXUXUXUXUXUXUXUX",
"UXUXUXUXUXUXUXUXUXUXUXUXUXUXUXUXUXUXUXUXUXUXUXUXUXUXUXUXUXUXUXUXUXUXUXUXUXUXUXUXUXUXUXUXUXUXUXUXUXUXUXUXUXUXUXUXUXUXUXUXUXUXUXUXUXUXUXUXUXUXUXUXUXUXUX",
"UXUXUXUXUXUXUXUXUXUXUXUXUXUXUXUXUXUXUXUXUXUXUXUXUXUXUXUXUXUXUXUXUXUXUXUXUXUXUXUXUXUXUXUXUXUXUXUXUXUXUXUXUXUXUXUXUXUXUXUXUXUXUXUXUXUXUXUXUXUXUXUXUXUXUX",
"UXUXUXUXUXUXUXUXUXUXUXUXUXUXUXUXUXUXUXUXUXUXUXUXUXUXUXUXUXUXUXUXUXUXUXUXUXUXUXUXUXUXUXUXUXUXUXUXUXUXUXUXUXUXUXUXUXUXUXUXUXUXUXUXUXUXUXUXUXUXUXUXUXUXUX",
"UXUXUXUXUXUXUXUXUXUXUXUXUXUXUXUXUXUXUXUXUXUXUXUXUXUXUXUXUXUXUXUXUXUXUXUXUXUXUXUXUXUXUXUXUXUXUXUXUXUXUXUXUXUXUXUXUXUXUXUXUXUXUXUXUXUXUXUXUXUXUXUXUXUXUX",
"UXUXUXUXUXUXUXUXUXUXUXUXUXUXUXUXUXUXUXUXUXUXUXUXUXUXUXUXUXUXUXUXUXUXUXUXUXUXUXUXUXUXUXUXUXUXUXUXUXUXUXUXUXUXUXUXUXUXUXUXUXUXUXUXUXUXUXUXUXUXUXUXUXUXUX"
};
