/* XPM */
static char *ico_save[] = {
/* columns rows colors chars-per-pixel */
"75 75 256 2",
"   c #00050C",
".  c #00080F",
"X  c #000307",
"o  c #00101C",
"O  c #001624",
"+  c #011E4E",
"@  c #011E50",
"#  c #01254B",
"$  c #012253",
"%  c #012B52",
"&  c #01235D",
"*  c #032A5C",
"=  c #0B2D5C",
"-  c #0B315E",
";  c #0B395B",
":  c #012661",
">  c #012A64",
",  c #0B2E65",
"<  c #012E69",
"1  c #0D2F68",
"2  c #0C3464",
"3  c #01336E",
"4  c #0D346A",
"5  c #053967",
"6  c #023373",
"7  c #043879",
"8  c #143E79",
"9  c #064677",
"0  c #115076",
"q  c #144772",
"w  c #F6AC2E",
"e  c #F8AD2C",
"r  c #F9B32F",
"t  c #EFAA31",
"y  c #F5AE32",
"u  c #F7B330",
"i  c #F9BC32",
"p  c #F6B13B",
"a  c #F4BA36",
"s  c #FAC435",
"d  c #FCCD3A",
"f  c #F6C83C",
"g  c #F7B646",
"h  c #F8BE5C",
"j  c #F8BF60",
"k  c #FCD641",
"l  c #F7D949",
"z  c #FEE049",
"x  c #FFE655",
"c  c #FBE85C",
"v  c #F9C878",
"b  c #FFEA60",
"n  c #FFED6C",
"m  c #F7EA68",
"M  c #FFF079",
"N  c #F7ED7C",
"B  c #042F85",
"V  c #043285",
"C  c #013C84",
"Z  c #02368D",
"A  c #03398E",
"S  c #113785",
"D  c #113986",
"F  c #113C8B",
"G  c #023791",
"H  c #023B93",
"J  c #0B3D91",
"K  c #023F98",
"L  c #123F92",
"P  c #01438C",
"I  c #13438D",
"U  c #154586",
"Y  c #024296",
"T  c #0B4195",
"R  c #034A96",
"E  c #02439C",
"W  c #034D9A",
"Q  c #0D4B9B",
"!  c #154595",
"~  c #144995",
"^  c #144699",
"/  c #164B9C",
"(  c #1B4994",
")  c #03509C",
"_  c #15519A",
"`  c #0A5487",
"'  c #324E89",
"]  c #0247A1",
"[  c #024AA4",
"{  c #094EA4",
"}  c #034EA9",
"|  c #164FA0",
" . c #0D53A4",
".. c #0352AD",
"X. c #0852A7",
"o. c #1652A4",
"O. c #1856A6",
"+. c #1656A9",
"@. c #165AAD",
"#. c #1C5CAB",
"$. c #195AA6",
"%. c #0356B1",
"&. c #0359B5",
"*. c #0B5BB3",
"=. c #035DBA",
"-. c #165DB1",
";. c #185EB1",
":. c #2359A4",
">. c #1964AE",
",. c #0661B7",
"<. c #0362BD",
"1. c #0669BF",
"2. c #0E62B8",
"3. c #1661B5",
"4. c #1962B4",
"5. c #1664B9",
"6. c #1865B9",
"7. c #1769BE",
"8. c #196BBB",
"9. c #3F6EAB",
"0. c #3F7FAC",
"q. c #2569B7",
"w. c #2474BE",
"e. c #425B8D",
"r. c #4D6C9C",
"t. c #667696",
"y. c #707E98",
"u. c #426FAB",
"i. c #456EA8",
"p. c #4571AC",
"a. c #4A73AC",
"s. c #4574B1",
"d. c #4A77B3",
"f. c #4C79B5",
"g. c #527BB6",
"h. c #587DB3",
"j. c #0364C2",
"k. c #0369C4",
"l. c #0368C8",
"z. c #0C6AC3",
"x. c #176CC2",
"c. c #1A6EC2",
"v. c #136FC8",
"b. c #0673CC",
"n. c #1770C7",
"m. c #1972C4",
"M. c #1774CB",
"N. c #1976CA",
"B. c #1778CF",
"V. c #197ACC",
"C. c #0371D1",
"Z. c #037EDF",
"A. c #177CD5",
"S. c #1A7ED4",
"D. c #2474C5",
"F. c #2A76C5",
"G. c #2B7CC7",
"H. c #2F7BC8",
"J. c #267ECA",
"K. c #327DC9",
"L. c #357AC6",
"P. c #3F80AD",
"I. c #78889F",
"U. c #4083AE",
"Y. c #548BA5",
"T. c #5189A8",
"R. c #5796A9",
"E. c #5795AA",
"W. c #4189B3",
"Q. c #438BBB",
"!. c #5680BA",
"~. c #579AB3",
"^. c #579BBB",
"/. c #6F8BB5",
"(. c #788BA9",
"). c #1A83D3",
"_. c #1782DB",
"`. c #1B84D8",
"'. c #1A8BDC",
"]. c #2681CB",
"[. c #2981CA",
"{. c #2084C4",
"}. c #3382CC",
"|. c #3A81C9",
" X c #3F80C7",
".X c #2786D3",
"XX c #2B81D0",
"oX c #278BD6",
"OX c #2B8CD4",
"+X c #218DDF",
"@X c #2B88D8",
"#X c #3485D0",
"$X c #2390D3",
"%X c #1686E1",
"&X c #1788E2",
"*X c #1A8FE1",
"=X c #1A96E8",
"-X c #1A95E6",
";X c #2596E5",
":X c #2598E8",
">X c #289DEC",
",X c #2B97E4",
"<X c #339AE5",
"1X c #448CC4",
"2X c #4489CE",
"3X c #4886CA",
"4X c #579BC3",
"5X c #579CCC",
"6X c #5590CF",
"7X c #448BD1",
"8X c #5593D3",
"9X c #579AD6",
"0X c #579BD9",
"qX c #5B92D0",
"wX c #6B9DD3",
"eX c #76A4D7",
"rX c #8293AE",
"tX c #8A9AB5",
"yX c #91A1BD",
"uX c #AAABAE",
"iX c #AFB0B0",
"pX c #B6B6B6",
"aX c #BCBCBC",
"sX c #FFF288",
"dX c #FFF49A",
"fX c #C0C0BF",
"gX c #FFF6AB",
"hX c #FFF9BC",
"jX c #F8F6BC",
"kX c #8AA0CB",
"lX c #99A9C5",
"zX c #9FB0CB",
"xX c #9DB0D5",
"cX c #84ADDA",
"vX c #A3B3CE",
"bX c #A3B7D5",
"nX c #B4C5E1",
"mX c #C5C4C4",
"MX c #CCCCCB",
"NX c #C8C7C6",
"BX c #D4D4D4",
"VX c #DBDBDB",
"CX c #FFF9CC",
"ZX c #F8F7CC",
"AX c #FFFBDC",
"SX c #E3E2E2",
"DX c #E8E7E7",
"FX c #ECECEC",
"GX c #F0EFEF",
"HX c #F1F0EF",
"JX c #FFFDE9",
"KX c #F4F4F4",
"LX c #FFFDF4",
"PX c #FFFFFF",
"IX c #F4F6FA",
"UX c None",
/* pixels */
"UXUXUXUXUXUXUXUXUXUXUX[.[.].].7.x.x.c.c.m.bXLXIXLXIXIXLXIXIXLXIXIXLXIXIXLXIXIXLXLXIXIXLXIXIXLXKXLXIXIXLXIXLXIXIXLXLX!.8.oXoXoX.XUXUXUXUXUXUXUXUXUXUXUX",
"UXUXUXUXUXUXUXUX[.5.5.5.5.5.m.@.-.;.;.6.6.vXKXKXKXKXKXKXKXKXKXKXKXKXKXKXKXKXKXKXKXKXKXKXKXKXKXKXKXKXKXKXKXKXKXKXKXKXg.>.B.M.n.x.x.c.OXUXUXUXUXUXUXUXUX",
"UXUXUXUXUXUX[.5.-.3.3.5.5.7.8.@.;.;.;.;.6.vXIXKXIXKXKXKXKXKXKXKXKXKXKXKXKXKXIXKXKXKXKXKXKXKXKXKXKXKXKXKXKXKXKXKXKXKXg.@.B.n.n.x.x.x.x.c.OXUXUXUXUXUXUX",
"UXUXUXUXUXw.-.3.3.3.3.5.5.5.8.@.;.;.;.x.6.vXKXKXKXKXKXKXKXKXKXKXKXKXIXKXKXKXKXKXKXKXSXSXSXSXSXSXSXSXSXSXDXKXKXIXKXIXg.@.M.n.n.x.x.x.7.7.7.J.UXUXUXUXUX",
"UXUXUXUXw.@.@.-._ >.3.3.5.5.8.@.;.-.;.;.6.vXKXKXKXKXKXKXKXKXKXKXKXKXKXKXKXKXKXKXKXGX( ! ! ! ^ ^ ! ! ^ ~ i.KXIXGXKXKXf.>.V.x.x.x.x.7.7.7.7.5.[.UXUXUXUX",
"UXUXUXw.@.@.@.$.8 o.3.-.3.5.8.@.-.-.;.6.5.zXGXGXGXGXGXGXGXFXGXGXGXGXGXGXGXGXGXGXGXGX#.5.5.z.-.5.5.;.5.;.f.GXGXGXHXHXg.@.M.x.x.x.7.7.5.7.5.5.5.UXUXUXUX",
"UXUXUX@.@.@.-.~ ~ U 3.3.3.3.7.@.;.;.;.5.6.zXFXFXFXFXFXFXFXFXGXFXFXFXFXGXGXFXFXGXFXGX#.4.5.5.5.5.5.5.5.5.f.GXFXFXFXHXg.@.m.x.8.x.7.7.7.5.5.5.3.8.UXUXUX",
"UXUXq.+.@.+.o.U o.~ _ -.-.3.7.@.;.;.;.5.6.zXFXFXFXFXFXFXFXFXFXFXFXFXDXFXFXFXFXDXFXFX#.5.5.5.-.5.5.5.3.5.f.DXFXFXFXFXf.$.N.x.7.7.7.7.5.5.5.5.5.*.w.UXUX",
"UXUX@.+.@.o.$.4.o.$.>.3.-.2.6.@.-.-.;.5.6.lXDXFXDXFXDXFXDXDXDXDXDXDXFXDXFXFXDXFXDXFX-.-.-.5.5.5.5.5.5.5.d.FXDXDXDXFXf.@.m.x.7.7.5.5.5.5.3.3.3.-.4.UXUX",
"UXUXo.o.o.@.@._ o._ @.-.-.-.7.$.-.;.;.5.6.lXSXSXSXSXSXSXDXSXDXDXSXSXSXSXSXSXSXSXSXSX#.z.x.-.5.5.5.5.3.5.s.SXSXSXSXSXf.$.m.8.7.5.7.5.5.3.5.-.-.-.4.UXUX",
"UXq +.+.o.@.+.@.3.$.@.@.@.-.5.$.@.-.;.5.6.lXSXSXSXSXSXSXSXSXSXSXSXSXSXSXSXSXSXSXSXSX#.;.5.5.-.x.5.3.5.5.d.SXSXSXSXSXd.@.m.7.5.5.5.5.3.3.-.3.-.-.;.UXUX",
"UX8 o.o.o.o.+.+.+.@.@.@.@.@.7.+.-.;.4.4.6.lXVXVXVXVXVXVXVXVXVXVXVXVXVXVXVXVXVXVXVXSX;.;.5.5.5.-.5.5.5.7.s.VXSXVXVXSXd.$.x.7.5.5.5.3.-.3.-.-.-.-.-.2 UX",
"UX4 o.o.o.o.+.o.o.@.+.@.@.@.5.@.-.-.;.5.5.yXVXVXVXVXBXVXVXVXBXVXVXVXVXBXVXVXVXVXVXVX#.;.x.;.5.5.5.3.5.5.d.VXBXVXVXVXd.@.8.5.5.3.5.-.-.-.-.-.@.-.@.- UX",
"UX4 o.o.o.o.o.o.+.o.+.@.@.@.5.+.@.-.4.4.7.kXBXBXBXVXBXBXBXBXBXBXBXBXVXBXBXBXBXBXBXBX#.6.x.;.5.5.5.5.5.5.p.BXBXBXBXBXs.$.x.5.3.3.-.;.-.-.@.-.@.@.@.2 UX",
"UX4 | o.| o.o.o.o.o.+.o.+.+.3.@.-.-.3.4.5.tXBXBXBXBXBXBXBXBXBXBXBXBXBXBXBXBXBXBXBXMX#.6.-.5.-.5.3.5.3.5.s.BXBXBXBXBXa.$.7.3.3.3.;.-.-.@.@.+.@.+.@.= UX",
"UX4 / | o.| o.o.o.o.o.o.+.+.>.@.@.4.4.4.6.tXMXMXMXMXMXMXMXMXMXMXMXMXMXMXMXMXMXMXMXMX#.;.5.5.x.-.5.5.5.5.p.MXMXMXMXMXp.@.6.3.3.@.-.@.-.@.-.+.+.+.+.- UX",
"UX4 | / | | o.| o.o.o.o.o.+.4.+.;.;.;.4.5.tXNXMXMXMXMXMXMXMXMXMXNXMXMXMXMXMXMXMXMXMX#.5.3.5.3.5.5.5.3.5.p.MXMXMXMXNXp.@.4.4.@.-.-.@.+.-.+.+.+.o.+.= UX",
"UX4 | / | / | | | o.o.o.o.o.@.@.@.-.4.4.6.tXNXmXmXmXmXmXmXmXNXmXNXNXNXNXfXMXfXMXmXmX#.5.5.5.5.5.5.5.5.5.p.NXmXmXmXmXi.@.6.-.-.@.@.@.+.+.+.+.+.+.+.= UX",
"UX1 / / / | / | | | | o.o.o.-.+.-.;.;.3.>.tXmXmXmXmXmXmXmXmXmXmXmXmXNXfXfXNXfXfXmXfX#.5.5.5.5.5.5.5.5.3.a.fXfXfXmXmXa.$.3.@.@.@.+.+.+.+.o.+.o.o.o.= UX",
"UX2 / / / / / | / | | | | o.@.@.-.-.4.;.q.rXvXaXfXfXaXaXaXaXaXfXfXaXfXfXfXfXfXfXfXfX$.3.5.5.3.5.3.5.5.5.a.fXfXfXfXfXi.@.3.@.@.+.+.o.O.+.o.+.o.o.o.= UX",
"UX1 / / / / / / / / | | | | #.+.-.;.;.4.4.(.aXaXaXaXaXaXaXaXaXfXaXaXaXaXfXaXaXvXaXaX#.4.3.5.3.5.5.5.5.5.9.aXaXvXaXaXi.@.-.@.+.o.+.o.o.o.o.o.o.| o.= UX",
"UX1 / ^ / / ^ / / / / / / | #./ @.;.4.4.6.a.pXaXaXpXaXpXaXaXpXpXaXaXaXpXpXpXpXaXpXfXh.h.!.g.!.!.!.g.!.g./.aXpXpXpXuX:.O.@.+.+.o.o.o.o.o.o.| | | | = UX",
"UX, ( ^ ^ / / ^ / / / / / / | #.| @.#.;.4.>.I.iXpXpXpXpXpXpXpXpXpXpXpXpXpXpXpXpXpXpXaXaXpXaXpXpXaXpXaXpXpXpXpXpXuXr._ 4.@.o.o.o.o.o.| o.| | | | / $ UX",
"UX& ! / ^ / ^ / ^ / / / / / / O.O.! L I ! ( I e.t.y.I.t.I.y.t.I.y.y.y.y.y.y.y.y.y.y.y.y.I.t.I.I.y.y.I.y.I.y.y.t.' ( $.@.o.o.o.o.o.| | | | | | | Q $ UX",
"UX& G ! / ^ ^ ^ ^ / / ^ / / / / / #.4.4.4.4.8.8.4.8.8.m.m.m.V.V.V.`.'.*X*X=X=X=X*X*X'.`.).).V.V.m.m.m.c.c.8.7.7.8.4.o.o.o.o.| | o.| | o./ / _ Q H $ UX",
"UX& Z Z J ! ( ^ ^ ^ / ( / ( / ^ / / / ( / | | o.O.O.+.+.-.-.5.7.c.N.A.A._.&X&X&X_.A.B.M.n.7.5.3.3.-.@.@.@.+.O.o.o.o.o.o.| | | / _ / / / / / T H H $ UX",
"UX& Z Z Z G L ( ^ ^ ( ^ ^ ^ ^ / / ^ / / / / / | | O.O.+.+.-.3.5.7.x.B.A._.&X&X&X_.A.M.n.7.7.3.3.4.@.@.+.+.o.o.o.o.o._ | / o./ / / / / / Q K G H G $ UX",
"UX& Z Z G Z Z A ! ! ( ^ ^ ( ^ ^ ^ / ( / / / / | | | | O.+.@.@.3.5.x.M.A._.&X&X_.A.B.M.7.7.3.3.@.@.+.+.o.o.o.| | / / / | / / / / / / ^ T G H H G G $ UX",
"UX& Z Z Z Z Z Z Z J ! ! ! ( ^ ^ ( ^ ( ^ / ^ / ^ / / | | | o.+.@.-.7.v.B.A.&X&X%XA.n.x.5.-.-.@.@.+.o.o.o.| | | | / / / / / / / / ^ Y G G H A G G A @ UX",
"UX& Z Z Z Z Z Z Z Z Z A L ! ! ! ! ! ^ ^ ( ^ ^ ^ ^ / / / | | o.+.-.;.7.M.A.&X&XA.B.x.5.3.-.@.o.o.o.| | | / / / / / / / ^ / / ! A G G A H A G G G A + UX",
"UX& Z Z Z Z Z Z Z Z Z Z Z Z J ! ! L L L L L F F F F S S S S S S D D D I I T ! I J D S S F D D S S S F F F F L L L L ! ! T H A A G A G A A Z A Z G + UX",
"UX& Z Z B Z Z Z Z Z B Z Z Z ^ xXIXPXPXPXPXPXPXPXPXPXPXPXPXPXPXPXPXPXPXPXPXPXPXPXPXPXPXPXPXPXPXPXPXPXPXPXPXPXPXPXPXPXIXkXL G Z Z Z Z Z Z A Z G Z Z @ UX",
"UX: Z Z Z Z Z Z Z Z Z Z Z G nXPXPXPXPXPXPXPXPXPXPXPXPXPXPXPXPXPXPXPXPXPXPXPXPXPXPXPXPXPXPXPXPXPXPXPXPXPXPXPXPXPXPXPXPXPXbXG Z Z Z Z Z Z Z Z Z Z Z + UX",
"UX@ Z Z Z Z Z Z Z Z Z Z Z q.PXPXPXPXPXPXPXPXPXPXPXPXPXPXPXPXPXPXPXPXPXPXPXPXPXPXPXPXPXPXPXPXPXPXPXPXPXPXPXPXPXPXPXPXPXPXIXq.Z Z Z Z Z Z Z Z Z Z Z + UX",
"UX& Z Z Z Z Z Z Z Z Z Z Z 6XPXPXPXPXPXPXPXPXPXPXPXPXPXPXPXPXPXPXPXPXPXPXPXPXPXPXPXPXPXPXPXPXPXPXPXPXPXPXPXPXPXPXPXPXPXPXIX3XZ Z Z Z V Z V Z Z B Z + UX",
"UX& Z Z Z Z Z Z Z Z G Z G 8XPXPXPXPXPXPXPXPXPXPXPXPXPXPXPXPXPXPXPXPXPXPXPXPXPXPXPXPXPXPXPXPXPXPXPXPXPXPXPXPXPXPXPXPXPXPXIX2XB Z Z Z Z Z Z Z Z Z Z + UX",
"UX& Z A A Z A Z Z Z G Z G 9XPXPXPXPXPXPXPXPXPXPXPXPXPXPXPXPXPXPXPXPXPXPXPXPXPXPXPXPXPXPXPXPXPXPXPXPXPXPXPXPXPXPXPXPXPXPXPX7XZ Z Z Z Z Z Z Z Z Z Z + UX",
"UX& G Z A A Z A Z Z A G G 0XPXPXPXPXPXPXPXPXPXPXPXPXPXPXPXPXPXPXPXPXPXPXPXPXPXPXPXPXPXPXPXPXPXPXPXPXPXPXPXPXPXPXPXPXPXPXIX7XZ Z V Z Z Z Z Z Z Z Z + UX",
"UX& G G G A A A G G G H G 9XPXPXPXPXPXPXPXPXPXPXPXPXPXPXPXPXPXPXPXPXPXPXPXPXPXPXPXPXPXPXPXPXPXPXPXPXPXPXPXPXPXPXPXPXPXPXIX2XZ Z Z Z Z Z Z Z Z Z Z + UX",
"UX& H G A H H H H H H H K 0XPXPXPXPXPXPXPXPXPXPXPXPXPXPXPXPXPXPXPXPXPXPXPXPXPXPXPXPXPXPXPXPXPXPXPXPXPXPXPXPXPXPXPXPXPXPXPX2XZ Z Z Z Z Z Z Z Z Z Z + UX",
"UX> H H G G H H K G K G Y 0XPXPXPXPXPXPXPXPXPXPXPXPXPXPXPXPXPXPXPXPXPXPXPXPXPXPXPXPXPXPXPXPXPXPXPXPXPXPXPXPXPXPXPXPXPXPXPX7XZ G Z A Z Z Z Z Z Z Z @ UX",
"UX: H H K H H K G K Y K E 9XPXPXPXPXPXPXPXPXPXPXPXPXPXPXPXPXPXPXPXPXPXPXPXPXPXPXPXPXPXPXPXPXPXPXPXPXPXPXPXPXPXPXPXPXPXPXIX7XG A A A A Z G Z A Z G @ UX",
"UX> K H G K Y K K K K Y E 0XPXPXPXPXPXPXPXPXPXPXPXPXPXPXPXPXPXPXPXPXPXPXPXPXPXPXPXPXPXPXPXPXPXPXPXPXPXPXPXPXPXPXPXPXPXPXPX2XG G A G G A A G A Z Z @ UX",
"UX> H K Y K Y K Y K E E E 0XPXPXPXPXPXPXPXPXPXPXPXPXPXPXPXPXPXPXPXPXPXPXPXPXPXPXPXPXPXPXPXPXPXPXPXPXPXPXPXPXPXPXPXPXPXPXIX7XH H A H H A G A G A A @ UX",
"UX: K E E K E E E E E E E 0XPXPXPXPXPXPXPXPXPXPXPXPXPXPXPXPXPXPXPXPXPXPXPXPXPXPXPXPXPXPXPXPXPXPXPXPXPXPXPXPXPXPXPXPXPXPXPX7XK K H H G H H G A G G + UX",
"UX> E E K E E E ] E E [ [ 0XPXPXPXPXPXPXPXPXPXPXPXPXPXPXPXPXPXPXPXPXPXPXPXPXPXPXPXPXPXPXPXPXPXPXPXPXPXPXPXPXPXPXPXPXPXPXIX7XK K H H H H H H H G G $ UX",
"UX> E E E E E E E E [ [ [ 0XPXPXPXPXPXPXPXPXPXPXPXPXPXPXPXPXPXPXPXPXPXPXPXPXPXPXPXPXPXPXPXPXPXPXPXPXPXPXPXPXPXPXPXPXPXPXIX7XK K K K K H H H H H G @ UX",
"UX< E E E ] E E [ E [ [ } 0XPXPXPXPXPXPXPXPXPXPXPXPXPXPXPXPXPXPXPXPXPXPXPXPXPXPXPXPXPXPXPXPXPXPXPXPXPXPXPXPXPXPXPXPXPXPXPX7XY K K Y H K Y H H H K $ UX",
"UX< E E ] ] ] ] [ [ } [ } 0XLXLXLXLXLXLXLXLXLXLXLXLXLXLXLXLXLXLXLXLXLXLXLXLXLXLXLXLXLXLXLXLXLXLXLXLXLXLXLXLXLXLXLXLXLXLXLX2XE E E K K K K H K H K $ UX",
"UX< ] [ ] ] ] [ [ } } } } 0XJXJXJXJXJXJXJXJXJXJXJXJXJXJXJXJXJXJXJXJXJXJXJXJXJXJXJXJXJXJXJXJXJXJXJXJXJXJXJXJXJXJXJXJXJXJXJX|.E E E E E E Y K Y H K + UX",
"UX< ] [ [ [ [ } } } } } ..9XAXAXAXAXAXAXAXAXAXAXAXAXAXAXAXAXAXAXAXAXAXAXAXAXAXAXAXAXAXAXAXAXAXAXAXAXAXAXAXAXAXAXAXAXAXAXAX2X[ E E E E E E K K K K $ UX",
"UX< [ [ [ [ } } } } } } %.5XZXCXCXCXCXCXCXCXCXCXCXCXCXCXCXCXCXCXCXCXCXCXCXCXCXCXCXCXCXCXCXCXCXCXCXCXCXCXCXCXCXCXCXCXCXCXZX1X[ [ ] E E E E E E K E $ UX",
"UX3 [ } [ } } } ........%.5XhXhXhXhXhXhXhXhXhXhXhXhXhXhXhXhXhXhXhXhXhXhXhXhXhXhXhXhXhXhXhXhXhXhXhXhXhXhXhXhXhXhXhXhXhXjXjXQ.} [ ] ] ] E E E E E K $ UX",
"UX3 [ [ } } } ......%.%.%.4XgXgXgXgXgXgXgXgXgXgXgXgXgXgXgXgXgXgXgXgXgXgXgXgXgXgXgXgXgXgXgXgXgXgXgXgXgXgXgXgXgXgXgXgXgXgXgX|.[ [ [ ] ] ] ] E E E E $ UX",
"UX3 } } } ..} } ..%...&.=.^.dXdXdXdXdXdXdXdXdXdXdXdXdXdXdXdXdXdXdXdXdXdXdXdXdXdXdXdXdXdXdXdXdXdXdXdXdXdXdXdXdXdXdXdXdXdXdXQ.} [ [ [ [ ] ] E E E ] * UX",
"UX6 } ......%.%.%.%.%.=.=.^.sXsXsXsXsXsXsXsXsXsXsXsXsXsXsXsXsXsXsXsXsXsXsXsXsXsXsXsXsXsXsXsXsXsXsXsXsXsXsXsXsXsXsXsXsXsXsXQ.} } } [ [ [ ] [ ] ] E $ UX",
"UX3 ............%.&.%.=.=.~.M M M M M M M M M M M M M M M M M M M M M M M M M M M M M M M M M M M M M M M M M M M M M M N  X&...} } [ } [ [ ] ] [ * UX",
"UX7 ........P P P Y ..=.=.~.n n n n n n n n n n n n n n n n n n n n n n n n n n n n n n n n n n n n n n n n n n n n n n m P.....E C C C C [ [ ] E - UX",
"UX3 ..%.%...C P P C X.<.<.~.c c b b b b b b b b b b b b b b b b b b b b b b b b b b c c b b b b b b b b b b c c b b b b b P.%...Y 7 C 7 6 [ [ [ [ * UX",
"UX5 ..%.%.%.E ..} [ ..,.<.~.x x x x x x x x x x x x x x x x x x x x x x x x x x x x x x x x x x x x x x x x x x x x x x c P.%.%.[ E ] [ Y [ } [ [ $ UX",
"UX> ..%.&.%.[ } ..[ ..<.<.R.z z z z z z z z z z z z z z z z z z z z z z z z z z z z z z z z z z z z z z z z z z z z z z z P.,.&.W ] [ ] Y } } [ [ $ UX",
"UX* { &.&.&.1.1.1.1.<.j.j.R.k d k k k k k k k k k k k k k k k k k k k k k k k k z d d z z d z d d z z d z d d z z d l d l P.&.&...,.,.,.&.} } ..{ # UX",
"UX$ X.v.=.=.=.=.<.<.<.j.<.R.d d d d d d d d d d d d d d d d d d d d d d d d d d d d d d d d d d d d d d d d d d d d d d d P.&.&.%.%.%.........D. .UXUX",
"UXUX .;Xn.=.=.=.<.<.j.j.j.R.s d s s s s s s s s s s s s s s s s s s s s s s s s s s s s s s s s s s s s s s s s s s s s f P.,.&.&.%.%.......|.,XQ UXUX",
"UXUX_ >X<XL.=.<.j.j.j.l.j.Y.i i i i i i i i i i i i i i i i i i i i i i i i i i i i i i i i i i i i i i i i i i i i i i a s.=.&.&.%.&.%.%.D.<X>XQ UXUX",
"UXUX9 >X'.8.N.z.j.j.j.k.k.Y.u u u u u u u y u u u u r r r p u u u r u u u u u u u u u u u u u u u u u u u e u u u u u u a P.=.&.&.&.&.*.x.5.:X>X- UXUX",
"UXUXUX$X+X*.%.@XXXn.l.k.l.T.e e w w e e w w w w w w y p g p y e w w w w e w w y y w p w w w w w w w w w w w e u w w w w w P.=.<.=.7.K.XX..2.:X{.UXUXUX",
"UXUXUXq +X*...C.&XXX}.`.b.T.e w w w w y w w w w w w p h v h p y w w w y w w w u g v g y w w w y w w w w w w w w w w w w t P.z.V.[.@X%Xl...2.+X; UXUXUX",
"UXUXUXUX` *...b.Z.j.E A ^ +.5.x.x.c.D.D.D.F.L.L.L.3X3XwXcXwX3X|.H.H.H.H.H.H.H.K.6XeXqX|.G.G.F.D.D.D.D.D.c.c.c.x.x.x.5.5.-.o.! S } C.Z.l.X.2.0 UXUXUXUX",
"UXUXUXUXUX7 %.C.Z.l.E V B A E [ { { } } } } ........*.5.4.4.*.%.%.%.%.%.%.%.%.*.*.3.*.*...%...........} ..} } } } [ ] K Z B B Z } C.Z.k...5 UXUXUXUXUX",
"UXUXUXUXUXUX% b.Z.l.] B B G E { } { } } } %...........%.*.%.%.%.%.%.%.%.%.&.*.%...%.%.%.%...%.%.......X.} X.} } } { [ K G B B Z } C.%Xk.# UXUXUXUXUXUX",
"UXUXUXUXUXUXUXO ` z.[ B B A E [ } } } } } } ....%...%.....%...%.%.%.*.%.%.%.%.%.*...%.....%...........%.} X.} } } { E K G V B Z ..b.9 o UXUXUXUXUXUXUX",
"UXUXUXUXUXUXUXUXUX. % 6 6 V P R R R R R R W W W ) W ) W ) W ) ) ) ) ) ) ) ) ) ) W ) ) W W W W W ] W Q R R R R R R R Y C C 6 6 6 %   UXUXUXUXUXUXUXUXUX",
"UXUXUXUXUXUXUXUXUXUXUXUXX     .   . . . . . . . . . . . . . . . . . . . . . . . . . . . . . . . . . . . . . . . . . .       X UXUXUXUXUXUXUXUXUXUXUXUX",
"UXUXUXUXUXUXUXUXUXUXUXUXUXUXUXUXUXUXUXUXUXUXUXUXUXUXUXUXUXUXUXUXUXUXUXUXUXUXUXUXUXUXUXUXUXUXUXUXUXUXUXUXUXUXUXUXUXUXUXUXUXUXUXUXUXUXUXUXUXUXUXUXUXUXUX"
};
