/* XPM */
static char *ico_connection[] = {
/* columns rows colors chars-per-pixel */
"75 75 256 2",
"   c #003C7F",
".  c #013D81",
"X  c #044184",
"o  c #04448A",
"O  c #0B468A",
"+  c #134C8D",
"@  c #034992",
"#  c #074D97",
"$  c #1A5497",
"%  c #124D90",
"&  c #245A9B",
"*  c #0757A8",
"=  c #135BAA",
"-  c #035CBA",
";  c #215EA3",
":  c #1667BB",
">  c #2664A9",
",  c #396FAB",
"<  c #3977B8",
"1  c #2F6FB4",
"2  c #33679F",
"3  c #4575AE",
"4  c #045DCE",
"5  c #075DCA",
"6  c #025ED1",
"7  c #115FCC",
"8  c #0766C8",
"9  c #1668CC",
"0  c #0272CC",
"q  c #0271C6",
"w  c #0363D5",
"e  c #0D66D6",
"r  c #0266D9",
"t  c #056BDD",
"y  c #0A6CDB",
"u  c #0668D8",
"i  c #1266D4",
"p  c #156AD5",
"a  c #1B6BD4",
"s  c #136CDA",
"d  c #196ED9",
"f  c #0275D2",
"g  c #037BDC",
"h  c #0774DA",
"j  c #1473DD",
"k  c #1B74DC",
"l  c #1A75DA",
"z  c #1E72C7",
"x  c #216BCF",
"c  c #2874C8",
"v  c #226ED3",
"b  c #237ADC",
"n  c #2B7CDD",
"m  c #2776D6",
"M  c #3679D4",
"N  c #337ACB",
"B  c #037EE2",
"V  c #0771E3",
"C  c #1A7AE1",
"Z  c #1878E3",
"A  c #1379F6",
"S  c #177BF6",
"D  c #0179F6",
"F  c #237CE2",
"G  c #267CE7",
"H  c #217CF1",
"J  c #3D80BF",
"K  c #5A86BA",
"L  c #4782BD",
"P  c #2E81DD",
"I  c #2880D8",
"U  c #3383DC",
"Y  c #3D85DA",
"T  c #3C82C4",
"R  c #0381E6",
"E  c #0385EB",
"W  c #0188EE",
"Q  c #1981ED",
"!  c #038AF2",
"~  c #1C84FA",
"^  c #1B85F9",
"/  c #2B83E3",
"(  c #2584EB",
")  c #2C89E9",
"_  c #2583E6",
"`  c #3485E2",
"'  c #3C8BE4",
"]  c #358EEA",
"[  c #3C8DEB",
"{  c #3588E7",
"}  c #3991EA",
"|  c #268AFD",
" . c #2D8DFD",
".. c #2786F7",
"X. c #358CFA",
"o. c #2E91FD",
"O. c #2890F6",
"+. c #3494FD",
"@. c #3C93FD",
"#. c #3D9AFD",
"$. c #399AF7",
"%. c #3DA2FD",
"&. c #4787C8",
"*. c #5892C9",
"=. c #4688D9",
"-. c #538CDC",
";. c #4B92DE",
":. c #5B98DA",
">. c #6897C9",
",. c #669CD9",
"<. c #72A5D9",
"1. c #438BE6",
"2. c #4591E5",
"3. c #4B94E6",
"4. c #4495EA",
"5. c #4D95EB",
"6. c #4C9AEB",
"7. c #4499ED",
"8. c #529CEC",
"9. c #5899E5",
"0. c #4393FE",
"q. c #4B95FE",
"w. c #439CFD",
"e. c #4B9DFD",
"r. c #4499F4",
"t. c #539BFE",
"y. c #5A9CFE",
"u. c #5CA2EC",
"i. c #58A4EE",
"p. c #4CA3FD",
"a. c #4CACFC",
"s. c #46A1F8",
"d. c #53A3FE",
"f. c #5BA4FE",
"g. c #54A9FD",
"h. c #5BADFE",
"j. c #5DA6F4",
"k. c #4BB2FE",
"l. c #5BB1FC",
"z. c #57B8FE",
"x. c #63A1E4",
"c. c #6AA4E4",
"v. c #6CABEC",
"b. c #65A6EC",
"n. c #7AADE7",
"m. c #75ABE9",
"M. c #7CB3EC",
"N. c #77B2E8",
"B. c #64A4FE",
"V. c #62ACFD",
"C. c #6BACFD",
"Z. c #69A8F7",
"A. c #73ACFD",
"S. c #77ADF6",
"D. c #63B3FD",
"F. c #6BB4FE",
"G. c #6CBBFD",
"H. c #67B3F7",
"J. c #7BBBF5",
"K. c #75B2FD",
"L. c #7BB4FE",
"P. c #74BCFE",
"I. c #7BBDFE",
"U. c #77B5F4",
"Y. c #6FB0EF",
"T. c #669DE3",
"R. c #5CC8FE",
"E. c #66C5FE",
"W. c #7CC2FE",
"Q. c #76C7FE",
"!. c #7AD7FE",
"~. c #6FD8FE",
"^. c #7CE0FE",
"/. c #83A8D9",
"(. c #82A8CF",
"). c #83B4EB",
"_. c #8DBBEC",
"`. c #87B7EA",
"'. c #94BEEC",
"]. c #9BBEE7",
"[. c #84BBF3",
"{. c #83B5FE",
"}. c #84BCFE",
"|. c #8BBBFD",
" X c #89B9F6",
".X c #94BEFD",
"XX c #91BFF3",
"oX c #80AEF3",
"OX c #9BC2ED",
"+X c #9DC8EE",
"@X c #84C3FD",
"#X c #8AC4FD",
"$X c #85CAFE",
"%X c #8BCAFD",
"&X c #88C1F7",
"*X c #94C3F5",
"=X c #9BC5F3",
"-X c #94C3FD",
";X c #9DC4FD",
":X c #94CCFD",
">X c #9BCCFD",
",X c #98CBF6",
"<X c #86D4FE",
"1X c #94D2FE",
"2X c #9DD3FD",
"3X c #9DD9FE",
"4X c #A4C9EE",
"5X c #A7C9EE",
"6X c #A4CCF4",
"7X c #ABCEF4",
"8X c #A3CCFC",
"9X c #ABCDFD",
"0X c #A1C5FD",
"qX c #B1CEF6",
"wX c #ADD1F5",
"eX c #A3D4FD",
"rX c #AAD4FC",
"tX c #A5DCFE",
"yX c #ABDAFE",
"uX c #A1D0F7",
"iX c #B3D4F5",
"pX c #BCD9F6",
"aX c #B3D3FD",
"sX c #B4DCFD",
"dX c #BCDDFC",
"fX c #B8D7F8",
"gX c #B2D0EF",
"hX c #9BE4FE",
"jX c #AAE5FE",
"kX c #B5E2FE",
"lX c #BCE3FE",
"zX c #BBE8FE",
"xX c #C3DDF7",
"cX c #C1DDFB",
"vX c #C8DEF7",
"bX c #C3DCEC",
"nX c #C3E3FD",
"mX c #CBE5FC",
"MX c #C4E9FE",
"NX c #CDE9FE",
"BX c #CCE1F7",
"VX c #D2E6FA",
"CX c #D4EBFE",
"ZX c #DBEDFD",
"AX c #D3E4F7",
"SX c #DDF2FE",
"DX c #D5F2FD",
"FX c #E2EEFC",
"GX c #E3F3FE",
"HX c #EBF5FD",
"JX c #EDF8FE",
"KX c #E7FBFD",
"LX c #F2F7FD",
"PX c #F4F9FD",
"IX c #FBFCFE",
"UX c None",
/* pixels */
"UXUXUXUXUXUXUXUXUXUXUXUXUXUXUXUXUXUXUXUXUXUXUXUXUXUXUXUXUXUXUXUXUXUXUXUXUXUXUXUXUXUXUXUXUXUXUXUXUXUXUXUXUXUXUXUXUXUXUXUXUXUXUXUXUXUXUXUXUXUXUXUXUXUXUX",
"UXUXUXUXUXUXUXUXUXUXUXUXUXUXUXUXUXUXUXUXUXUXUXUXUXUXUXUXUXUXUXX . .   . . X . .         X UXUXUXUXUXUXUXUXUXUXUXUXUXUXUXUXUXUXUXUXUXUXUXUXUXUXUXUXUXUX",
"UXUXUXUXUXUXUXUXUXUXUXUXUXUXUXUXUXUXUXUXUXUXUXUXUXUXUX  . . X % > L :.<.N.n.`.N.<.:.L > + . . . . UXUXUXUXUXUXUXUXUXUXUXUXUXUXUXUXUXUXUXUXUXUXUXUXUXUX",
"UXUXUXUXUXUXUXUXUXUXUXUXUXUXUXUXUXUXUXUXUXUXUXUX.     % , ,.[.2XjXsXkXlXlXlXnXlXlXsXdXsXeX).*.1 O . X UXUXUXUXUXUXUXUXUXUXUXUXUXUXUXUXUXUXUXUXUXUXUXUX",
"UXUXUXUXUXUXUXUXUXUXUXUXUXUXUXUXUXUXUXUXUXUX.   X > :.1XeXsXdXnXMXVXCXVXZXZXZXVXCXCXVXNXmXnXsXyX,X*.$ X   UXUXUXUXUXUXUXUXUXUXUXUXUXUXUXUXUXUXUXUXUXUX",
"UXUXUXUXUXUXUXUXUXUXUXUXUXUXUXUXUXUXUXUXUX  X ; N.:XyXdXnXmXCXCXFXSXGXGXFXZXHXGXFXFXZXZXZXZXCXnXkXtX2Xc.$ X . UXUXUXUXUXUXUXUXUXUXUXUXUXUXUXUXUXUXUXUX",
"UXUXUXUXUXUXUXUXUXUXUXUXUXUXUXUXUXUXUX    O :.:XrXsXnXCXCXZXSXGXGXGXFXFXZXFXFXZXZXFXFXZXZXSXFXZXCXnXlXyX%X&.X . X UXUXUXUXUXUXUXUXUXUXUXUXUXUXUXUXUXUX",
"UXUXUXUXUXUXUXUXUXUXUXUXUXUXUXUXUXUX    > W.2XsXlXNXCXSXSXGXGXSXFXGXGXFXFXZXFXFXFXAXZXZXGXGXGXGXZXCXCXnXsXeXM.& . X UXUXUXUXUXUXUXUXUXUXUXUXUXUXUXUXUX",
"UXUXUXUXUXUXUXUXUXUXUXUXUXUXUXUXUX. X &.%XeXkXmXNXZXZXZXZXSXZXZXZXZXGXGXZXAXFXFXAXZXFXGXGXGXGXGXGXZXZXCXnXlXyX:X1 .   UXUXUXUXUXUXUXUXUXUXUXUXUXUXUXUX",
"UXUXUXUXUXUXUXUXUXUXUXUXUXUXUXUX. X (.mXCXDXZXCXVXVXZXZXZXZXAXAXVXFXGXZXAXVXFXHXGXGXGXFXSXGXZXZXGXGXZXBXxXnXdXyX,XJ     UXUXUXUXUXUXUXUXUXUXUXUXUXUXUX",
"UXUXUXUXUXUXUXUXUXUXUXUXUXUXUX.   &.2X2XwXfXpXAXAXAXHXZXZXAXCXZXZXZXZXZXZXZXSXHXSXGXSXGXSXSXZXZXZXFXVXvXmXxXMXdXtX1XJ   . UXUXUXUXUXUXUXUXUXUXUXUXUXUX",
"UXUXUXUXUXUXUXUXUXUXUXUXUXUX  . T @X&X=XwXiXpXAXmXZXmXBXAXAXHXHXGXGXFXZXSXZXZXHXGXZXGXSXSXGXCXZXFXZXBXvXCXmXpXiX,X*XJ.1 . . UXUXUXUXUXUXUXUXUXUXUXUXUX",
"UXUXUXUXUXUXUXUXUXUXUXUXUX  . 1 &XU. X,XiXfXpXBXCXBXxXBXvXBXZXZXGXHXLXHXSXZXZXGXHXGXGXGXGXGXCXCXGXCXmXBXCXmXpXiXwX=XM.u.$   . UXUXUXUXUXUXUXUXUXUXUXUX",
"UXUXUXUXUXUXUXUXUXUXUXUX. . % u.8X X=X7XiXfXpXmXmXlXpXxXxXmXZXZXZXZXZXFXGXJXJXGXJXGXGXKXKXGXDXSXZXZXvXCXCXpXpXiXwX6X*Xm.;.o   UXUXUXUXUXUXUXUXUXUXUXUX",
"UXUXUXUXUXUXUXUXUXUXUXUX    I 8.[.fXuXwXsXsXdXzXAXlXnXnXmXNXZXCXCXCXZXCXZXZXZXHXLXLXJXLXKXKXGXSXDXmXcXcXBXpXiXiXwX5XOXM.b.1     UXUXUXUXUXUXUXUXUXUXUX",
"UXUXUXUXUXUXUXUXUXUXUX.   = } u.M.6XmXyXlXlXzXzXCXMXCXVXZXCXCXCXCXZXCXZXZXCXSXSXLXIXIXIXIXIXIXCXNXnXpXpXpXiXgXgX5X4XOX`.m.;.#   UXUXUXUXUXUXUXUXUXUXUX",
"UXUXUXUXUXUXUXUXUXUXUX  . n 7.u.M.,XsXZXDXMXDXSXGXDXDXDXZXCXCXCXCXCXCXCXZXDXDXHXPXIXIXIXIXIXIXSXnXnXpXpXgXgXgX5X5X4X'.'.n.9.c . . UXUXUXUXUXUXUXUXUXUX",
"UXUXUXUXUXUXUXUXUXUX    = ] 6.v.J.,XeXzXHXJXPXPXIXGXGXDXCXCXCXNXNXVXCXCXCXCXZXGXLXIXIXIXIXIXPXGXVXnXlXpXiXiXgX6X4XOX]._.n.x.=.% . UXUXUXUXUXUXUXUXUXUX",
"UXUXUXUXUXUXUXUXUXUX  X _ ] 6.v.[.,X3XzXJXIXIXIXIXJXGXDXCXCXNXCXNXCXVXCXCXCXZXDXGXJXIXIXIXIXPXCXlXBXAXZXpXwX5X5XOX].'.`.N.c.;.z . . UXUXUXUXUXUXUXUXUX",
"UXUXUXUXUXUXUXUXUX    * ) } 8.v.J.%X3XNXPXIXIXIXIXJXSXDXNXNXNXNXNXNXNXNXNXNXCXZXDXGXPXIXIXPXHXMXlXnXMXCXAXgX5X4X=X'._.`.N.c.;.I @ . UXUXUXUXUXUXUXUXUX",
"UXUXUXUXUXUXUXUXUX    9 ) } 6.b.J.&X3XDXPXIXIXIXIXLXHXDXNXNXNXNXNXNXNXmXNXNXCXCXDXGXJXPXJXJXGXDXmXMXnXpXsXiXpXiX+X_.`.).n.x.;.P = . . UXUXUXUXUXUXUXUX",
"UXUXUXUXUXUXUXUXUX  X _ ) } 6.b.U.&X1XMXLXIXIXIXLXJXJXGXZXVXNXNXNXmXNXMXNXMXmXNXHXHXDXHXHXZXnXnXnXiX7X7X7XyXeXrX5X4X`.N.m.x.;.I 9   . UXUXUXUXUXUXUXUX",
"UXUXUXUXUXUXUXUX    * _ ] } 3.u.Y.W.%XkXKXLXLXJXGXDXGXCXZXGXZXMXNXmXNXmXmXmXmXGXGXCXNXCXJXpXsXiXiXiX7X4XuXeX8X,X'.6X7X`.c.u.;.n l @   UXUXUXUXUXUXUXUX",
"UXUXUXUXUXUXUXUX    : _ ) ] 4.u.v.M.3XzXBXSXSXSXDXNXSXMXmXNXZXHXZXNXnXmXnXmXZXZXmXMXmXlXCXCXiXiXwX7X5X4X+XOXOX`.).`.).+X`.:.Y m j * . UXUXUXUXUXUXUXUX",
"UXUXUXUXUXUXUXUX. . 9 ) ) } 6.u.u.&XtXsXkXzXMXMXMXnXMXZXnXNXNXNXFXHXSXNXnXSXZXnXnXnXfXiXiXGXiXwX6X6X4X+X+X_._.`.).n.n.c.x.,.=.m j - .   UXUXUXUXUXUXUX",
"UXUXUXUXUXUXUXUX  . _ _ } H.P.I.Y.1X2XeXtXsXsXlXlXzXNXGXZXZXZXZXmXnXCXHXLXGXnXlXlXiXwXwX7XBXAX7X6X4X+X,X*X*X`.`.n.m.c.c.9.3.Y &.l 8 . . UXUXUXUXUXUXUX",
"UXUXUXUXUXUXUXUX. @ O._ a.D.G.F.U.:X2X2XeXtXtXsXlXCXSXHXHXGXGXSXCXnXnXGXNXSXLXSXnXfX7X6X6X7XFXiX6XuX6X,X*X&X[.N.m.c.x.:.;.s.I l c.m X   UXUXUXUXUXUXUX",
"UXUXUXUXUXUXUXUX  = ( ) h.D.G.W.W.$X%X:XeXeXyXyXnXZXZXGXLXHXHXGXZXCXGXnXdXdXnXZXHXGXxX7X6X6XfXVXrXpXnXlXtX$XW.U.v.x.:.;.;.%.I l j u.%   UXUXUXUXUXUXUX",
"UXUXUXUXUXUXUX.   : C ) h.z.F.P.I.W.$X%X:X>XtXnXCXGXGXLXPXPXLXJXGXJXNXdXsXsXsXkXsXlXZXHXAXiX6XAXNXAXHXFXAXjXW.G.l.i.;.;.Y } O.Z h w *   UXUXUXUXUXUXUX",
"UXUXUXUXUXUXUXX . c Q _ p.h.P.G.P.W.@X$X%X:XeXnXZXGXLXPXIXIXIXIXPXZXCXnXsXsXsXsXsXrX=X=XpXZXGXZXHXHXPXHXKXDX<XW.l.i.;.Y I P %.Z t w -   UXUXUXUXUXUXUX",
"UXUXUXUXUXUXUX  . I $.F ) ] D.G.G.P.I.@X%X%X3XlXSXJXPXIXIXIXIXIXPXGXCXmXsXyXyXsXyXwX*X*XOX_.+XsXZXIXIXPXKXLX3XG.l.s.' U I b %.Q h t 9   UXUXUXUXUXUXUX",
"UXUXUXUXUXUXUX  . I s.a.) ) l.E.Q.Q.W.W.$X%X1XtXZXJXPXIXIXIXIXIXPXJXCXnXyXyXyXyXyX2X_. X_._.`.&X7XLXIXIXIXIXGXkX$XH.6.P b z _ $.t Q 8   UXUXUXUXUXUXUX",
"UXUXUXUXUXUXUX  . b p.p.l.a.%.~.Q.Q.<XW.@X$X1X3XnXJXPXIXIXIXIXIXPXJXCXnXyXeXeXeXeXeX[.[.).`.).J.2XFXIXIXJXKXlXlXlXiXuX*X[.S.b.V.5.f.N   UXUXUXUXUXUXUX",
"UXUXUXUXUXUXUX. . m %.a.z.Q.k.!.<XQ.<XW.$X@X<X1XzXFXLXIXIXIXIXIXLXHXNXdXeXeXeXeXeX2X[.).M.).M.U.@XxXFXLXFXNXQ.z.a.s.2.} ' ` { n d Z 8   UXUXUXUXUXUXUX",
"UXUXUXUXUXUXUX.   z s.a.z.<XQ.E.~.z.E.a.l.H.$X1XyXCXDXJXLXLXJXLXJXZXlXeX2X2X2X>X>X>X:XM.U.N.m.v.Y.,XpXAXGX$Xz.a.%.] _ _ j y y u 5 t -   UXUXUXUXUXUXUX",
"UXUXUXUXUXUXUXUX  : %.k.R.~.hXhX<X!.E.z.a.6.H.%X3XlXMXMXDXSXSXSXJXcXyX>X:X>X:X:X:X:X:X&Xm.v.v.c.x.v.G.G.%XfXa.%.) P Q l j y t u 5 D *   UXUXUXUXUXUXUX",
"UXUXUXUXUXUXUXUX  = %.k.R.^.jXKXJXDXhXE.a.s.v.W.$X3XsXkXjXjXlXnXCXnX:X>X>X:X:X:X:X:X%X%XJ.c.J.J.H.D.P.Q.s.U.8X} P Q l Z y t t r r D # . UXUXUXUXUXUXUX",
"UXUXUXUXUXUXUXUX. @ %.k.R.!.DXPXIXLXMX!.H.H.8.6.V.H.%XyXsXsXsX2X2XZX:X%X%X:X%X#X#X#X@X}.@XK.I.I.D.l.h.D.7.' u.*X] C Z y t t r r O.D @ . UXUXUXUXUXUXUX",
"UXUXUXUXUXUXUXUX  X $.k.R.!.ZXPXIXPXFXkXW.7.4.2.3.6.i.H.#X%X$X$X@XrXcX}.@X#X#X@X@XI.F.F.I.I.I.I.l.g.h.D.[ / / ' [.4.Z t r r w ^ o.E X X UXUXUXUXUXUXUX",
"UXUXUXUXUXUXUXUX  X P a.R.<XCXJXLXPXHXAXE.} ' ' 2.2.3.3.H.P.I.I.I.W.VX%XI.I.I.I.I.D.V.P.P.P.F.P.F.l.l.h.{ P b C k 8.b.j r w t O.| C   UXUXUXUXUXUXUXUX",
"UXUXUXUXUXUXUXUX  . c p.z.<XmXGXHXHXZX7XwXi.{ ' ' ' 2.2.3.V.F.P.P.P.:XcXP.P.P.F.h.V.F.F.F.F.D.D.D.g.g.a.$.F k Z j t Z 5.5.s V | | h   UXUXUXUXUXUXUXUX",
"UXUXUXUXUXUXUXUXUX. ; F.I.#X1X6XbXAXpXM.6. Xb.` ` ' ' ' 1.2.h.D.F.F.F.cX#XF.F.F.F.F.F.F.V.h.l.h.h.g.g.p.w.( j y y r r 6 e ` r.#.o.= . UXUXUXUXUXUXUXUX",
"UXUXUXUXUXUXUXUXUX  o e.p.g.l.a.v.U.u.] G F v. X' ` ` U U ' ' 8.V.l.V.I.nXF.V.D.h.p.p.g.p.w.p.a.d.p.s.w.w.o.e t u r 6 6 4 4 | o. .X . UXUXUXUXUXUXUXUX",
"UXUXUXUXUXUXUXUXUX    Y d.p.p.p.] ( F C k k F 5.;X3.U U U U U ` 7.f.g.g.9X>Xg.g.g.w.+.p.#.+.o.+.w.w.w.#.$.o.y e r w 6 6 4 w o.o.k   UXUXUXUXUXUXUXUXUX",
"UXUXUXUXUXUXUXUXUXUX. = d.d.d.p.0.b k Z k k k k { .Xm.G n n n n G [ p.p.g.cXh.p.p.+. .o.| | | ~ | @.#.+.+.X.u w 6 6 6 6 4 w ..+.= . UXUXUXUXUXUXUXUXUX",
"UXUXUXUXUXUXUXUXUXUX. O 8.f.d.e.e.G k k j j s j k F S.*X1.F F F b n w.w.w.K.9Xw.+.| | ~ ^ ^ ^ ~ ^ ^ ^ o.+. .w 6 6 4 6 6 6 w X.] o . UXUXUXUXUXUXUXUXUX",
"UXUXUXUXUXUXUXUXUXUXUX  c B.f.g.d.{ v k k s s s s s d 3.0XT.F v C X.+.+.+.+.>XV. .^ S ^ ^ ^ A A S ..A ^ @...6 4 6 6 6 4 Z X.0.: . UXUXUXUXUXUXUXUXUXUX",
"UXUXUXUXUXUXUXUXUXUXUX  O 8.B.f.t.r.b k d d s s s s s s G  X.Xn (  . . . .+.e.9X@.| A A A A A A A S S S ..e 7 4 4 4 4 7 @.q.r.O o UXUXUXUXUXUXUXUXUXUX",
"UXUXUXUXUXUXUXUXUXUXUXUX. < C.B.f.f.t.{ v d s s i s i s e s 9.0XC.o.| | | | | A.}.| S A A A A A A S G H 4 7 4 6 4 7 i v q.t.c . UXUXUXUXUXUXUXUXUXUXUX",
"UXUXUXUXUXUXUXUXUXUXUXUX  . b.C.C.V.f.y.n v v s s i i i i i e G |.-Xq.| | | |  .|.f.| | A A A S ......( d 4 7 7 7 i v 1.y.5.. UXUXUXUXUXUXUXUXUXUXUXUX",
"UXUXUXUXUXUXUXUXUXUXUXUXUX. ; A.A.A.C.B.5.m v v x i i i i i i i ..f.;XK. .| S | 0.-X+. . .( ^ ..e.e.q.q.[ 7 7 9 9 x 1.B.B.> . UXUXUXUXUXUXUXUXUXUXUXUX",
"UXUXUXUXUXUXUXUXUXUXUXUXUX. . &.{.{.A.A.B.=.M v x a a a i i i G X.X.@.{.|.y.| ..| C.L.@.w.e.#.d.f.f.f.f.q.v 9 v m 1.B.A.&.. UXUXUXUXUXUXUXUXUXUXUXUXUX",
"UXUXUXUXUXUXUXUXUXUXUXUXUXUX  O ,.|.{.{.S.y.M M m x x x 7 x G q.@.X.X.X.y.{.{.e.X.@.|.F.g.V.D.F.F.F.C.C.f.G v M =.A.{.T.O UXUXUXUXUXUXUXUXUXUXUXUXUXUX",
"UXUXUXUXUXUXUXUXUXUXUXUXUXUXUX  O oX.X|.{.oX9.Y M M x x x 1.q.q.0.0.0.@.@.0.f.{.K.r.f.8XI.I.@X@X@X|.}.L.C.Y M -.A.{.S.% . UXUXUXUXUXUXUXUXUXUXUXUXUXUX",
"UXUXUXUXUXUXUXUXUXUXUXUXUXUXUXUX. $ XX.X.X|.oX-.=.M M M M q.q.q.q.q.q.0.0.0.0.t.A.-XI.$XrX:X9X9XaX9X9X-X}.8.9.S.|. X; . UXUXUXUXUXUXUXUXUXUXUXUXUXUXUX",
"UXUXUXUXUXUXUXUXUXUXUXUXUXUXUXUXUX. $ `.0X.X.Xm.-.-.&.M 1.y.y.y.q.q.q.q.0.q.q.t.B.F.>XaXcXmXVXZXZXZXVXfX>X$X{..XoX& . UXUXUXUXUXUXUXUXUXUXUXUXUXUXUXUX",
"UXUXUXUXUXUXUXUXUXUXUXUXUXUXUXUXUXUX. $ /.9X0X.X/.T.-.-.B.B.y.y.y.q.q.q.q.q.y.B.C.I.%XyXVXHXPXLXLXHXHXVXyX>X;Xn.+ . UXUXUXUXUXUXUXUXUXUXUXUXUXUXUXUXUX",
"UXUXUXUXUXUXUXUXUXUXUXUXUXUXUXUXUXUXUX. . >.aX9X0X]./.oX{.A.A.A.B.B.y.y.y.y.B.A.I.$X1XnXFXLXIXIXIXIXHXNXyX>X,.+ UXUXUXUXUXUXUXUXUXUXUXUXUXUXUXUXUXUXUX",
"UXUXUXUXUXUXUXUXUXUXUXUXUXUXUXUXUXUXUXUX. . 3 OXqXqX].0X.X.X|.{.S.A.A.A.B.A.A.{.#X1XjXMXLXPXIXIXIXLXKXBX+X, . UXUXUXUXUXUXUXUXUXUXUXUXUXUXUXUXUXUXUXUX",
"UXUXUXUXUXUXUXUXUXUXUXUXUXUXUXUXUXUXUXUXUXUX. . K 5XqXqXqX9X0X0X.X.X.X{.{.{.{..X:X3XtXNXHXIXIXIXPXHXlXK O . UXUXUXUXUXUXUXUXUXUXUXUXUXUXUXUXUXUXUXUXUX",
"UXUXUXUXUXUXUXUXUXUXUXUXUXUXUXUXUXUXUXUXUXUXUXUX. % 3 ].xXfXaXaX9X9X0X0X0X0X0X0XeXtXsXlXMXGXLXHXbXK + X UXUXUXUXUXUXUXUXUXUXUXUXUXUXUXUXUXUXUXUXUXUXUX",
"UXUXUXUXUXUXUXUXUXUXUXUXUXUXUXUXUXUXUXUXUXUXUXUXUXUX. . 2 K /.qXcXcXaXaXqXqXaXaXsXzXlXlXiX].>.2 o o UXUXUXUXUXUXUXUXUXUXUXUXUXUXUXUXUXUXUXUXUXUXUXUXUX",
"UXUXUXUXUXUXUXUXUXUXUXUXUXUXUXUXUXUXUXUXUXUXUXUXUXUXUXUXUX. . O $ , K >.<.(./.<.>.K , & O . o UXUXUXUXUXUXUXUXUXUXUXUXUXUXUXUXUXUXUXUXUXUXUXUXUXUXUXUX",
"UXUXUXUXUXUXUXUXUXUXUXUXUXUXUXUXUXUXUXUXUXUXUXUXUXUXUXUXUXUXUXUXUXUX* @ o @ @ o # * UXUXUXUXUXUXUXUXUXUXUXUXUXUXUXUXUXUXUXUXUXUXUXUXUXUXUXUXUXUXUXUXUX",
"UXUXUXUXUXUXUXUXUXUXUXUXUXUXUXUXUXUXUXUXUXUXUXUXUXUXUXUXUXUXUXUXUXUXUXUXUXUXUXUXUXUXUXUXUXUXUXUXUXUXUXUXUXUXUXUXUXUXUXUXUXUXUXUXUXUXUXUXUXUXUXUXUXUXUX",
"UXUXUXUXUXUXUXUXUXUXUXUXUXUXUXUXUXUXUXUXUXUXUXUXUXUXUXUXUXUXUXUXUXUXUXUXUXUXUXUXUXUXUXUXUXUXUXUXUXUXUXUXUXUXUXUXUXUXUXUXUXUXUXUXUXUXUXUXUXUXUXUXUXUXUX",
"UXUXUXUXUXUXUXUXUXUXUXUXUXUXUXUXUXUXUXUXUXUXUXUXUXUXUXUXUXUXUXW E R R B g g g B B B R R ! ! UXUXUXUXUXUXUXUXUXUXUXUXUXUXUXUXUXUXUXUXUXUXUXUXUXUXUXUXUX",
"UXUXUXUXUXUXUXUXUXUXUXUXUXUXUXUXUXUXUXUXUXUXUXUXUXUXUXUXUXW E R B g f f f f 0 f f f g B B R W ! ! UXUXUXUXUXUXUXUXUXUXUXUXUXUXUXUXUXUXUXUXUXUXUXUXUXUX",
"UXUXUXUXUXUXUXUXUXUXUXUXUXUXUXUXUXUXUXUXUXUXUXUXUXUXUXUX! E R g g f f 0 q q q q 0 f f g g B E ! ! UXUXUXUXUXUXUXUXUXUXUXUXUXUXUXUXUXUXUXUXUXUXUXUXUXUX",
"UXUXUXUXUXUXUXUXUXUXUXUXUXUXUXUXUXUXUXUXUXUXUXUXUXUXUXUXUXW E R g g f f 0 0 0 0 f f g B B R E ! UXUXUXUXUXUXUXUXUXUXUXUXUXUXUXUXUXUXUXUXUXUXUXUXUXUXUX",
"UXUXUXUXUXUXUXUXUXUXUXUXUXUXUXUXUXUXUXUXUXUXUXUXUXUXUXUXUXUXUXUXUXR B g g g g g g g R R E UXUXUXUXUXUXUXUXUXUXUXUXUXUXUXUXUXUXUXUXUXUXUXUXUXUXUXUXUXUX",
"UXUXUXUXUXUXUXUXUXUXUXUXUXUXUXUXUXUXUXUXUXUXUXUXUXUXUXUXUXUXUXUXUXUXUXUXUXUXUXUXUXUXUXUXUXUXUXUXUXUXUXUXUXUXUXUXUXUXUXUXUXUXUXUXUXUXUXUXUXUXUXUXUXUXUX",
"UXUXUXUXUXUXUXUXUXUXUXUXUXUXUXUXUXUXUXUXUXUXUXUXUXUXUXUXUXUXUXUXUXUXUXUXUXUXUXUXUXUXUXUXUXUXUXUXUXUXUXUXUXUXUXUXUXUXUXUXUXUXUXUXUXUXUXUXUXUXUXUXUXUXUX",
"UXUXUXUXUXUXUXUXUXUXUXUXUXUXUXUXUXUXUXUXUXUXUXUXUXUXUXUXUXUXUXUXUXUXUXUXUXUXUXUXUXUXUXUXUXUXUXUXUXUXUXUXUXUXUXUXUXUXUXUXUXUXUXUXUXUXUXUXUXUXUXUXUXUXUX",
"UXUXUXUXUXUXUXUXUXUXUXUXUXUXUXUXUXUXUXUXUXUXUXUXUXUXUXUXUXUXUXUXUXUXUXUXUXUXUXUXUXUXUXUXUXUXUXUXUXUXUXUXUXUXUXUXUXUXUXUXUXUXUXUXUXUXUXUXUXUXUXUXUXUXUX"
};
