/* XPM */
static char * italy_xpm[] = {
"32 32 384 2",
"  	c None",
". 	c #005A2A",
"+ 	c #196D43",
"@ 	c #1B6E45",
"# 	c #1A6D44",
"$ 	c #1B6F44",
"% 	c #1B6F46",
"& 	c #1C6F45",
"* 	c #1C6F46",
"= 	c #005725",
"- 	c #F9F6F9",
"; 	c #EFF1F2",
"> 	c #EBEEEF",
", 	c #EBFDFE",
"' 	c #EBA1A1",
") 	c #EF0404",
"! 	c #EE1C1C",
"~ 	c #EE1B1B",
"{ 	c #EE1A1A",
"] 	c #EF0B0B",
"^ 	c #E70000",
"/ 	c #003719",
"( 	c #2D8E63",
"_ 	c #4FA684",
": 	c #459E7A",
"< 	c #45A07C",
"[ 	c #489F7B",
"} 	c #479F7D",
"| 	c #499F7C",
"1 	c #48A17C",
"2 	c #2C9066",
"3 	c #FFFFFF",
"4 	c #FDFFFF",
"5 	c #FDBFBF",
"6 	c #FF3735",
"7 	c #FF4848",
"8 	c #FF4949",
"9 	c #FF4646",
"0 	c #FF4545",
"a 	c #FF4343",
"b 	c #FF5858",
"c 	c #FF0808",
"d 	c #023B1C",
"e 	c #067C4C",
"f 	c #06794A",
"g 	c #08784A",
"h 	c #0B7A4B",
"i 	c #0B7B4D",
"j 	c #0D7B4C",
"k 	c #0C7B4E",
"l 	c #0E7B4E",
"m 	c #006631",
"n 	c #FEFFFF",
"o 	c #FBFEFF",
"p 	c #FBFFFF",
"q 	c #F9A5A7",
"r 	c #FD0000",
"s 	c #FE0E0E",
"t 	c #FE0C0C",
"u 	c #FE0B0B",
"v 	c #FE0909",
"w 	c #FF0606",
"x 	c #FF0707",
"y 	c #013B1E",
"z 	c #0D7E4C",
"A 	c #0E7C50",
"B 	c #127D50",
"C 	c #127E51",
"D 	c #157D52",
"E 	c #167F52",
"F 	c #167F51",
"G 	c #177F52",
"H 	c #006A37",
"I 	c #F9AAA9",
"J 	c #FE1717",
"K 	c #FE1616",
"L 	c #FE1515",
"M 	c #FE1414",
"N 	c #FE1313",
"O 	c #FE1111",
"P 	c #FF0E0E",
"Q 	c #FF0909",
"R 	c #023B1E",
"S 	c #0E7D4B",
"T 	c #117D4F",
"U 	c #137D4F",
"V 	c #137C50",
"W 	c #167E4F",
"X 	c #177D50",
"Y 	c #167D52",
"Z 	c #187F52",
"` 	c #006B35",
" .	c #F9A9AB",
"..	c #FD0200",
"+.	c #FE1818",
"@.	c #FE1212",
"#.	c #FF1111",
"$.	c #FF0A0A",
"%.	c #023D1E",
"&.	c #0D7C4C",
"*.	c #117B4E",
"=.	c #137C4E",
"-.	c #157B4F",
";.	c #167D50",
">.	c #167E51",
",.	c #187E51",
"'.	c #197E51",
").	c #006A36",
"!.	c #F9A9AA",
"~.	c #FD0202",
"{.	c #FE1919",
"].	c #FF1010",
"^.	c #023D1F",
"/.	c #0D7A49",
"(.	c #117B4B",
"_.	c #13794D",
":.	c #137B4C",
"<.	c #167C4F",
"[.	c #187D4E",
"}.	c #197D50",
"|.	c #006735",
"1.	c #FD0402",
"2.	c #FE191A",
"3.	c #0D7949",
"4.	c #11784A",
"5.	c #13794B",
"6.	c #137A4C",
"7.	c #167B4C",
"8.	c #167A4E",
"9.	c #187A4F",
"0.	c #177B4F",
"a.	c #006632",
"b.	c #F9FEFF",
"c.	c #FAFFFF",
"d.	c #F8A6A5",
"e.	c #033D20",
"f.	c #0E7846",
"g.	c #10774A",
"h.	c #117848",
"i.	c #14774B",
"j.	c #14784C",
"k.	c #177A4D",
"l.	c #167A4D",
"m.	c #187A4D",
"n.	c #006530",
"o.	c #FAFEFF",
"p.	c #F8A5A5",
"q.	c #FE1010",
"r.	c #FE0F0F",
"s.	c #FE0D0D",
"t.	c #FE0A0A",
"u.	c #FF0C0C",
"v.	c #0C7746",
"w.	c #107547",
"x.	c #127648",
"y.	c #127749",
"z.	c #15784A",
"A.	c #16784B",
"B.	c #15774B",
"C.	c #177A4C",
"D.	c #00632F",
"E.	c #033E20",
"F.	c #0C7545",
"G.	c #0F7345",
"H.	c #117346",
"I.	c #117446",
"J.	c #127647",
"K.	c #157649",
"L.	c #15774A",
"M.	c #147245",
"N.	c #005620",
"O.	c #043E20",
"P.	c #0B7442",
"Q.	c #0D7245",
"R.	c #117343",
"S.	c #127446",
"T.	c #137648",
"U.	c #137145",
"V.	c #0F6D3F",
"W.	c #127040",
"X.	c #005822",
"Y.	c #FF0B0B",
"Z.	c #0B7341",
"`.	c #0E7142",
" +	c #107243",
".+	c #117243",
"++	c #0F6F40",
"@+	c #116E3E",
"#+	c #106E41",
"$+	c #127041",
"%+	c #043E21",
"&+	c #0A7240",
"*+	c #0D6F40",
"=+	c #0E7040",
"-+	c #0D6D3E",
";+	c #0E6D3E",
">+	c #116E41",
",+	c #0A703F",
"'+	c #0C6E3E",
")+	c #0C6C3C",
"!+	c #0E6C3D",
"~+	c #0F6E3F",
"{+	c #106F40",
"]+	c #116F41",
"^+	c #106F41",
"/+	c #FF090A",
"(+	c #0A6F3C",
"_+	c #0A6B3B",
":+	c #0D6C3D",
"<+	c #005722",
"[+	c #F8A4A5",
"}+	c #FE0F10",
"|+	c #FE0F11",
"1+	c #FE0E0F",
"2+	c #FE0D0F",
"3+	c #FE0A0B",
"4+	c #044222",
"5+	c #0C723E",
"6+	c #0E703D",
"7+	c #0E713D",
"8+	c #11713E",
"9+	c #127241",
"0+	c #117340",
"a+	c #137342",
"b+	c #127342",
"c+	c #005D23",
"d+	c #F8A7A5",
"e+	c #FE1711",
"f+	c #FE1812",
"g+	c #FE1610",
"h+	c #FE170F",
"i+	c #FE140E",
"j+	c #FE130E",
"k+	c #FF130B",
"l+	c #FF120A",
"m+	c #074923",
"n+	c #107D40",
"o+	c #127B3E",
"p+	c #127C41",
"q+	c #137B40",
"r+	c #147C41",
"s+	c #167E42",
"t+	c #157D44",
"u+	c #177E44",
"v+	c #006925",
"w+	c #F8ADA5",
"x+	c #FD1300",
"y+	c #FE2813",
"z+	c #FE2714",
"A+	c #FE2712",
"B+	c #FE2613",
"C+	c #FE2512",
"D+	c #FE2411",
"E+	c #FF220F",
"F+	c #FF220D",
"G+	c #0B5026",
"H+	c #178A43",
"I+	c #168741",
"J+	c #198644",
"K+	c #1A8843",
"L+	c #1B8745",
"M+	c #1A8846",
"N+	c #1C8845",
"O+	c #1B8847",
"P+	c #007629",
"Q+	c #F8B4A8",
"R+	c #FD2801",
"S+	c #FE3B18",
"T+	c #FE3A16",
"U+	c #FE3A17",
"V+	c #FE3916",
"W+	c #FE3815",
"X+	c #FE3714",
"Y+	c #FF3611",
"Z+	c #FF3912",
"`+	c #0F5828",
" @	c #1D9946",
".@	c #1C9446",
"+@	c #1F9547",
"@@	c #209446",
"#@	c #219648",
"$@	c #209547",
"%@	c #229549",
"&@	c #229649",
"*@	c #00852B",
"=@	c #F9BDA9",
"-@	c #FD3F04",
";@	c #FE501A",
">@	c #FE511B",
",@	c #FE4F19",
"'@	c #FE5018",
")@	c #FE4E17",
"!@	c #FE4D16",
"~@	c #FF4C16",
"{@	c #FF5215",
"]@	c #126229",
"^@	c #23A94B",
"/@	c #24A149",
"(@	c #25A34A",
"_@	c #26A24B",
":@	c #27A24A",
"<@	c #28A44C",
"[@	c #09952E",
"}@	c #F9FDFF",
"|@	c #F9FFFF",
"1@	c #F9C5A9",
"2@	c #FD5909",
"3@	c #FE671F",
"4@	c #FE671D",
"5@	c #FE681E",
"6@	c #FE661D",
"7@	c #FE671C",
"8@	c #FE661B",
"9@	c #FF651A",
"0@	c #FF6C19",
"a@	c #176B2B",
"b@	c #2BB94E",
"c@	c #29B14C",
"d@	c #2AB04B",
"e@	c #2BB24C",
"f@	c #2DB24E",
"g@	c #2CB24D",
"h@	c #2EB24D",
"i@	c #2EB24F",
"j@	c #0EA732",
"k@	c #F9CFAC",
"l@	c #FF730C",
"m@	c #FE8022",
"n@	c #FE8020",
"o@	c #FE7F21",
"p@	c #FE7D20",
"q@	c #FE7E1F",
"r@	c #FF7C1E",
"s@	c #FF881E",
"t@	c #1C7A2F",
"u@	c #33C851",
"v@	c #31BF4F",
"w@	c #32BF50",
"x@	c #33BF50",
"y@	c #33BE50",
"z@	c #34C051",
"A@	c #15B536",
"B@	c #FBD7AE",
"C@	c #FF8D0F",
"D@	c #FE9725",
"E@	c #FE9525",
"F@	c #FE9623",
"G@	c #FE9624",
"H@	c #FF9522",
"I@	c #FFA324",
"J@	c #185C21",
"K@	c #42FB5D",
"L@	c #3EEA59",
"M@	c #3FEA5A",
"N@	c #3FEA59",
"O@	c #3EEA5B",
"P@	c #40E95A",
"Q@	c #25E341",
"R@	c #FFFBBA",
"S@	c #FFC018",
"T@	c #FFC62C",
"U@	c #FFC62B",
"V@	c #FFC72A",
"W@	c #FFC829",
"X@	c #FFD52C",
"Y@	c #050304",
"Z@	c #060606",
"`@	c #070607",
" #	c #040302",
".#	c #040303",
"+#	c #030404",
"@#	c #040403",
"##	c #040404",
"$#	c #010300",
"%#	c #010100",
"&#	c #000100",
"*#	c #000201",
"=#	c #000302",
"-#	c #000402",
";#	c #000504",
">#	c #000505",
",#	c #000404",
"'#	c #030807",
")#	c #040805",
"                                                                ",
"                                                                ",
"                                                                ",
"                                                                ",
"  . + @ # $ % & * = - ; > > > > > > > > , ' ) ! ! ~ ~ { ! ] ^   ",
"/ ( _ : < [ } | 1 2 3 3 4 4 4 4 4 4 4 4 4 5 6 7 8 7 9 0 a b c   ",
"d e f g h i j k l m 3 n o o o o o o o o p q r s t u t v v w x   ",
"y z A B C D E F G H 3 n o o o o o o o o p I r J K L M N O P Q   ",
"R S T U V W X Y Z ` 3 n o o o o o o o o p  ...+.J K L M @.#.$.  ",
"%.&.*.=.-.;.>.,.'.).3 3 o o o o o o o o p !.~.{.+.J M M @.].$.  ",
"^./.(._.:.<.[.X }.|.3 3 o o o o o o o o p  .1.2.+.J K M @.].$.  ",
"^.3.4.5.6.7.8.9.0.a.3 3 o o o b.b.b.b.b.c.d.r N N M M N N #.$.  ",
"e.f.g.h.i.j.k.l.m.n.3 4 b.b.b.o.o.o.o.o.c.p.r q.q.r.s s.t.u.Q   ",
"e.v.w.x.y.z.A.B.C.D.n n o.o.o.o.o.o.o.o.c.p.r q.O q.r.s t Q c   ",
"E.F.G.H.I.J.K.L.M.N.n n o.o.o.o.o.o.o.o.c.p.r q.O q.r.s t Q c   ",
"O.P.Q.R.S.T.U.V.W.X.n n o.o.o.o.o.o.o.o.c.p.r q.O q.r.s u Y.c   ",
"O.Z.`. +.+++@+#+$+X.n n o.o.o.o.o.o.o.o.c.p.r q.O q.r.s u Y.c   ",
"%+&+*+=+-+;+++>+$+X.n n o.o.o.o.o.o.o.o.c.p.r q.O q.r.s t Q c   ",
"%+,+'+)+!+~+{+]+^+X.n n o.o.o.o.o.o.o.o.c.p.r q.O q.r.s t /+c   ",
"%+(+_+)+:+;+~+#+#+<+n n o.o.o.o.o.o.o.o.c.[+r }+|+1+2+t 3+Q c   ",
"4+5+6+7+8+9+0+a+b+c+3 n o.o.o.o.o.o.o.o.c.d+..e+f+g+h+i+j+k+l+  ",
"m+n+o+p+q+r+s+t+u+v+n n o.o.o.o.o.o.o.o.c.w+x+y+z+A+B+C+D+E+F+  ",
"G+H+I+J+K+L+M+N+O+P+3 n o.o.o.o.o.o.o.o.c.Q+R+S+T+U+V+W+X+Y+Z+  ",
"`+ @.@+@@@#@$@%@&@*@3 4 o.o.o.o.o.o.o.o.c.=@-@;@>@,@'@)@!@~@{@  ",
"]@^@/@(@_@:@<@<@<@[@n 4 }@}@}@}@}@}@}@}@|@1@2@3@4@5@6@7@8@9@0@  ",
"a@b@c@d@e@f@g@h@i@j@n 3 p p p p p p p p p k@l@m@m@n@o@p@q@r@s@  ",
"t@u@v@w@x@y@z@z@z@A@3 3 o o o o o o o o p B@C@D@D@E@F@G@F@H@I@  ",
"J@K@L@M@N@O@P@P@P@Q@3 3 3 3 3 3 3 3 3 3 3 R@S@T@T@T@U@U@V@W@X@  ",
"  Y@Z@`@ #.#+#@###$#.#%#&#&#&#&#&#&#&#&#*#=#-#;#>#,#>#>#'#)#    ",
"                                                                ",
"                                                                ",
"                                                                "};
