/* XPM */
static char * italy_xpm[] = {
"18 18 41 1",
" 	c None",
".	c #7FC3A0",
"+	c #7EC3A0",
"@	c #FFFFFF",
"#	c #EC7F82",
"$	c #EB7E81",
"%	c #77C09B",
"&	c #EB777B",
"*	c #6FBC95",
"=	c #E96F73",
"-	c #66B78E",
";	c #E86669",
">	c #5AB386",
",	c #E65A5F",
"'	c #50AE7E",
")	c #E55055",
"!	c #45A976",
"~	c #E3454B",
"{	c #E3454A",
"]	c #3AA36E",
"^	c #3BA36E",
"/	c #E13B41",
"(	c #319F67",
"_	c #319E67",
":	c #E03136",
"<	c #21985B",
"[	c #DD2126",
"}	c #1F965A",
"|	c #1F975A",
"1	c #DD1F25",
"2	c #DD1F24",
"3	c #1D9658",
"4	c #DD1D23",
"5	c #1B9557",
"6	c #DD1B21",
"7	c #199456",
"8	c #DC191F",
"9	c #189455",
"0	c #DC181E",
"a	c #179354",
"b	c #DC171D",
".+++@@@@@@@@@@##$$",
"%%%%@@@@@@@@@@&&&&",
"****@@@@@@@@@@====",
"----@@@@@@@@@@;;;;",
">>>>@@@@@@@@@@,,,,",
"''''@@@@@@@@@@))))",
"!!!!@@@@@@@@@@~~{~",
"]^^^@@@@@@@@@@////",
"(___@@@@@@@@@@::::",
"<<<<@@@@@@@@@@[[[[",
"}|||@@@@@@@@@@1122",
"3333@@@@@@@@@@4444",
"5555@@@@@@@@@@6666",
"7777@@@@@@@@@@8888",
"9999@@@@@@@@@@0000",
"aaaa@@@@@@@@@@bbbb",
"aaaa@@@@@@@@@@bbbb",
"aaaa@@@@@@@@@@bbbb"};
