/* XPM */
static char * keyboard_xpm[] = {
"24 24 35 1",
" 	c None",
".	c #A0A0A0",
"+	c #9E9E9E",
"@	c #9B9B9B",
"#	c #9C9C9C",
"$	c #8C8C8C",
"%	c #8F8F8F",
"&	c #7F7F7F",
"*	c #FDFDFD",
"=	c #919191",
"-	c #888888",
";	c #717171",
">	c #F7F7F7",
",	c #828282",
"'	c #646464",
")	c #7B7B7B",
"!	c #565656",
"~	c #EBEBEB",
"{	c #747474",
"]	c #494949",
"^	c #E5E5E5",
"/	c #6E6E6E",
"(	c #3B3B3B",
"_	c #676767",
":	c #2E2E2E",
"<	c #D9D9D9",
"[	c #606060",
"}	c #202020",
"|	c #D3D3D3",
"1	c #868686",
"2	c #131313",
"3	c #BBBBBB",
"4	c #848484",
"5	c #545454",
"6	c #5E5E5E",
"                        ",
"                        ",
"                        ",
"                        ",
"                        ",
"                        ",
".+@@@@@@@@@@@@@@@@@@@@+.",
"#$$$$$$$$$$$$$$$$$$$$$$#",
"%&**&**&**&**&**&**&**&=",
"-;>>;>>;>>;>>;>>;>>;>>;-",
",'''''''''''''''''''''',",
")!~~~~~!~~!~~!~~!~~~~~!)",
"{]^^^^^]^^]^^]^^]^^^^^]{",
"/((((((((((((((((((((((/",
"_:<<<:<<<<<<<<<<<<:<<<:_",
"[}|||}||||||||||||}|||}[",
"122222222222222222222221",
"345555555555555555555643",
"                        ",
"                        ",
"                        ",
"                        ",
"                        ",
"                        "};
