/* XPM */
static const char *ledrosso_xpm[]={
/* AudioWizard_bmpfeed */
"32 32 385 2",
"      c None",
" 0    c #720000",
" 1    c #750000",
" 2    c #790000",
" 3    c #7A0000",
" 4    c #760000",
" 5    c #700000",
" 6    c #6C0000",
" 7    c #660000",
" 8    c #5C0000",
" 9    c #550000",
" a    c #540000",
" b    c #570000",
" c    c #5D0000",
" d    c #5F0000",
" e    c #6A0000",
" f    c #640000",
" g    c #6E0101",
" h    c #882020",
" i    c #A05050",
" j    c #AC6363",
" k    c #AD6565",
" l    c #A25555",
" m    c #892626",
" n    c #670202",
" o    c #770000",
" p    c #8B1A1A",
" q    c #C16666",
" r    c #EFC2C2",
" s    c #FFEFEF",
" t    c #FFF4F4",
" u    c #F2CBCB",
" v    c #C27474",
" w    c #832121",
" x    c #590000",
" y    c #5B0000",
" z    c #600000",
" A    c #710000",
" B    c #800303",
" C    c #C85959",
" D    c #F9C7C7",
" E    c #FFF6F6",
" F    c #FFF7F7",
" G    c #FFFBFB",
" H    c #FFFCFC",
" I    c #FFF8F8",
" J    c #FFF3F3",
" K    c #FCD0D0",
" L    c #C86868",
" M    c #6C0606",
" N    c #6D0000",
" O    c #8C0C0C",
" P    c #EB8181",
" Q    c #FFD0D0",
" R    c #FFD9D9",
" S    c #FFE0E0",
" T    c #FFEAEA",
" U    c #FFF9F9",
" V    c #FFFDFD",
" W    c #FFFAFA",
" X    c #FFF5F5",
" Y    c #FFECEC",
" Z    c #FFE1E1",
" &    c #FFDADA",
"0     c #FFD1D1",
"00    c #EF9191",
"01    c #861313",
"02    c #6F0000",
"03    c #6B0000",
"04    c #8B0D0D",
"05    c #EF7070",
"06    c #FFB5B5",
"07    c #FFBBBB",
"08    c #FFCDCD",
"09    c #FFE6E6",
"0a    c #FFEEEE",
"0b    c #FFF0F0",
"0c    c #FFE8E8",
"0d    c #FFDCDC",
"0e    c #FFBEBE",
"0f    c #FFB6B6",
"0g    c #F58080",
"0h    c #881515",
"0i    c #770101",
"0j    c #E23B3B",
"0k    c #FF9696",
"0l    c #FFA1A1",
"0m    c #FFB3B3",
"0n    c #FFC4C4",
"0o    c #FFDEDE",
"0p    c #FFEBEB",
"0q    c #FFE7E7",
"0r    c #FFDFDF",
"0s    c #FFD4D4",
"0t    c #FFC8C8",
"0u    c #FFA3A3",
"0v    c #FF9999",
"0w    c #EE4E4E",
"0x    c #700202",
"0y    c #6B0202",
"0z    c #B40808",
"0A    c #E92A2A",
"0B    c #FF8787",
"0C    c #FF9797",
"0D    c #FFA8A8",
"0E    c #FFB9B9",
"0F    c #FFC7C7",
"0G    c #FFD3D3",
"0H    c #FFDBDB",
"0I    c #FFE3E3",
"0J    c #FFC9C9",
"0K    c #FFBCBC",
"0L    c #FFABAB",
"0M    c #FF8B8B",
"0N    c #EF3D3D",
"0O    c #B90707",
"0P    c #5E0303",
"0Q    c #670000",
"0R    c #860B0B",
"0S    c #D60606",
"0T    c #DB1111",
"0U    c #FE7171",
"0V    c #FF8A8A",
"0W    c #FF9A9A",
"0X    c #FFB8B8",
"0Y    c #FFC3C3",
"0Z    c #FFCCCC",
"0&    c #FFD5D5",
"1     c #FFC5C5",
"10    c #FFBABA",
"11    c #FFADAD",
"12    c #FF9C9C",
"13    c #FF8C8C",
"14    c #FE7979",
"15    c #E01A1A",
"16    c #D80303",
"17    c #880E0E",
"18    c #580000",
"19    c #B61616",
"1a    c #DC0202",
"1b    c #D60101",
"1c    c #F23F3F",
"1d    c #FF8181",
"1e    c #FF9B9B",
"1f    c #FFA7A7",
"1g    c #FFC1C1",
"1h    c #FFC2C2",
"1i    c #FFA9A9",
"1j    c #FF9D9D",
"1k    c #FF8383",
"1l    c #F54D4D",
"1m    c #DB0000",
"1n    c #BE1616",
"1o    c #5B0202",
"1p    c #740808",
"1q    c #D51313",
"1r    c #DD0000",
"1s    c #E30606",
"1t    c #FA5252",
"1u    c #FF7C7C",
"1v    c #FF8686",
"1w    c #FF9393",
"1x    c #FF9F9F",
"1y    c #FFA6A6",
"1z    c #FFACAC",
"1A    c #FFAEAE",
"1B    c #FFA0A0",
"1C    c #FF9494",
"1D    c #FF8888",
"1E    c #FF7D7D",
"1F    c #FB5C5C",
"1G    c #E50D0D",
"1H    c #DA0000",
"1I    c #720F0F",
"1J    c #680000",
"1K    c #911A1A",
"1L    c #E31010",
"1M    c #DE0000",
"1N    c #E30000",
"1O    c #E40000",
"1P    c #EA0707",
"1Q    c #F94242",
"1R    c #FF7373",
"1S    c #FF9090",
"1T    c #FF9191",
"1U    c #FF8484",
"1V    c #FF7777",
"1W    c #FA4949",
"1X    c #EB0B0B",
"1Y    c #E50000",
"1Z    c #E60909",
"1&    c #951D1D",
"2     c #560000",
"20    c #A52020",
"21    c #E80909",
"22    c #E20000",
"23    c #E70000",
"24    c #EB0000",
"25    c #EE0000",
"26    c #F00000",
"27    c #F81F1F",
"28    c #FD4848",
"29    c #FF6767",
"2a    c #FF7979",
"2b    c #FF8080",
"2c    c #FF6B6B",
"2d    c #FE4D4D",
"2e    c #F92525",
"2f    c #F10000",
"2g    c #EF0000",
"2h    c #E70202",
"2i    c #A71C1C",
"2j    c #570101",
"2k    c #AE1F1F",
"2l    c #E90303",
"2m    c #F30000",
"2n    c #F70000",
"2o    c #F90000",
"2p    c #FC0000",
"2q    c #FE0D0D",
"2r    c #FF2121",
"2s    c #FF3333",
"2t    c #FF3B3B",
"2u    c #FF3C3C",
"2v    c #FF3535",
"2w    c #FF2424",
"2x    c #FE0F0F",
"2y    c #FA0000",
"2z    c #F60000",
"2A    c #F40000",
"2B    c #EC0000",
"2C    c #EA0202",
"2D    c #B21E1E",
"2E    c #580202",
"2F    c #B12020",
"2G    c #ED0303",
"2H    c #F80000",
"2I    c #FF0101",
"2J    c #FF0303",
"2K    c #FF0404",
"2L    c #FF0505",
"2M    c #FF0707",
"2N    c #FF0808",
"2O    c #FF0606",
"2P    c #FE0101",
"2Q    c #EE0202",
"2R    c #B41E1E",
"2S    c #570202",
"2T    c #6E0000",
"2U    c #AC2525",
"2V    c #F20909",
"2W    c #FF0C0C",
"2X    c #FF1111",
"2Y    c #FF1414",
"2Z    c #FF1616",
"2&    c #FF1717",
"3     c #FF1515",
"30    c #FF0D0D",
"31    c #FF0202",
"32    c #FD0000",
"33    c #F20202",
"34    c #560101",
"35    c #9C2525",
"36    c #F51313",
"37    c #F20000",
"38    c #FF0909",
"39    c #FF0F0F",
"3a    c #FF1919",
"3b    c #FF1D1D",
"3c    c #FF2020",
"3d    c #FF1E1E",
"3e    c #FF1A1A",
"3f    c #FF1010",
"3g    c #FF0A0A",
"3h    c #F90B0B",
"3i    c #9C2828",
"3j    c #810F0F",
"3k    c #EB1E1E",
"3l    c #FF1C1C",
"3m    c #FF2525",
"3n    c #FF2828",
"3o    c #FF2A2A",
"3p    c #FF2929",
"3q    c #FF2626",
"3r    c #FF2222",
"3s    c #FB0000",
"3t    c #F31919",
"3u    c #771B1B",
"3v    c #5A0000",
"3w    c #6E0303",
"3x    c #CA2E2E",
"3y    c #FE0303",
"3z    c #FE0000",
"3A    c #FF0E0E",
"3B    c #FF2323",
"3C    c #FF2F2F",
"3D    c #FF3030",
"3E    c #D52B2B",
"3F    c #5A0707",
"3G    c #740000",
"3H    c #8F1D1D",
"3I    c #FC1414",
"3J    c #FF0000",
"3K    c #FF1313",
"3L    c #FF3131",
"3M    c #FF3737",
"3N    c #FF3E3E",
"3O    c #FF3D3D",
"3P    c #FF3838",
"3Q    c #FF3232",
"3R    c #FF2B2B",
"3S    c #FF1B1B",
"3T    c #FF0B0B",
"3U    c #942424",
"3V    c #660808",
"3W    c #CC2E2E",
"3X    c #FF1F1F",
"3Y    c #FF4040",
"3Z    c #FF4444",
"3&    c #FF4848",
"4     c #FF4545",
"40    c #FF1818",
"41    c #D82B2B",
"42    c #5E0C0C",
"43    c #731717",
"44    c #F22B2B",
"45    c #FF2C2C",
"46    c #FF3434",
"47    c #FF4C4C",
"48    c #FF5252",
"49    c #FF4D4D",
"4a    c #FF4747",
"4b    c #FF3F3F",
"4c    c #FF3636",
"4d    c #FF2D2D",
"4e    c #FB2525",
"4f    c #7A2020",
"4g    c #650000",
"4h    c #862929",
"4i    c #F53333",
"4j    c #FF2E2E",
"4k    c #FF4141",
"4l    c #FF4A4A",
"4m    c #FF5353",
"4n    c #FF5B5B",
"4o    c #FF5C5C",
"4p    c #FF5555",
"4q    c #FF4242",
"4r    c #FB2D2D",
"4s    c #962F2F",
"4t    c #872C2C",
"4u    c #F23D3D",
"4v    c #FF5656",
"4w    c #FF6060",
"4x    c #FF5757",
"4y    c #F93A3A",
"4z    c #963232",
"4A    c #540303",
"4B    c #731F1F",
"4C    c #D04848",
"4D    c #FF5959",
"4E    c #FF5454",
"4F    c #FF4949",
"4G    c #D74747",
"4H    c #7A2424",
"4I    c #5E0000",
"4J    c #5A0B0B",
"4K    c #8C2F2F",
"4L    c #CE5252",
"4M    c #F95555",
"4N    c #FF5151",
"4O    c #FC5555",
"4P    c #D55454",
"4Q    c #943535",
"4R    c #5D0E0E",
"4S    c #580404",
"4T    c #722020",
"4U    c #994242",
"4V    c #B24646",
"4W    c #BE4B4B",
"4X    c #BF4B4B",
"4Y    c #B44646",
"4Z    c #9D4242",
"4&    c #762525",
"5     c #5A0606",
"                                                                ",
"                                                                ",
"     0 0 0 0 1 2 3 4 5 6 7 8 9 9 9 a b c d d d d d d d d d d    ",
"     0 0 0 0 1 2 3 1 e f g h i j k l m n b b c d d d d d d d    ",
"     0 0 0 0 1 3 o 5 p q r s         t u v w x y z d d d d d    ",
"     0 0 0 0 4 A B C D s E F G     H I F J K L M 9 d d d d d    ",
"     0 0 0 0 N O P Q R S T J U V V W X Y Z &0 0001 9 d d d d    ",
"    0202 5030405060708 &090a t I I X0b0c0d Q0e0f0g0h 9 d d d    ",
"     N N030i0j0k0l0m0n0 0o090p0a0a Y0q0r0s0t060u0v0w0x y d d    ",
"     6 60y0z0A0B0C0D0E0F0G0H S0I0I Z0d0s0J0K0L0v0M0N0O0P c d    ",
"     60Q0R0S0T0U0V0W0L0X0Y0Z0 0&0&0G081 101112131415161718 d    ",
"     6 n191a1b1c1d0V1e1f0m071g0Y0Y1h0K061i1j131k1l161m1n1o d    ",
"    031p1q1m1r1s1t1u1v1w1x1y1z1A1A1z1f1B1C1D1E1F1G1r1H0T1I y    ",
"    1J1K1L1M1N1O1P1Q1R1d0M1S0k0v0v0k1T131U1V1W1X1Y1N1M1Z1&2     ",
"    0Q202122232425262728292a2b1k1k1d1u2c2d2e2f2g24231N2h2i2j    ",
"    032k2l23242g2m2n2o2p2q2r2s2t2u2v2w2x2p2y2z2A262B232C2D2E    ",
"     62F2G242g2m2H2p2I2J2K2L2M2N2N2M2O2L2J2P2p2H2A26242Q2R2S    ",
"    2T2U2V252m2n2p2I2M2W2X2Y2Z2&2&2Z3 2X302N31322H2A2g332k34    ",
"     03536372H2p3138392Y3a3b3c2r2r3c3d3e3 3f3g2J322o373h3i 9    ",
"     23j3k2n2y2I2N3f2Z3l2r3m3n3o3o3p3q3r3b2&2X382I3s2n3t3u3v    ",
"     23w3x3y3z2L3A3 3b3B3p3C2s2v2v2s3D3o2w3d2Z392M322I3E3F d    ",
"    3G033H3I3J383K3e3r3o3L3M2t3N3N3O3P3Q3R3B3S3K3T3J3f3U2  d    ",
"     5 N3V3W2O302&3X3n3D3P3Y3Z3&3&4 3Y3P3L3p3c40392J4142 8 d    ",
"    03 6 f43443g403r45463O4 474848494a4b4c4d3B3S3T4e4f18 d d    ",
"    4g4g4g184h4i3 2w4j3M4k4l4m4n4o4p474q3P3D3q2Z4r4s 9 d d d    ",
"    4g4g f z a4t4u3m453M4q474v4w4w4x493Z3P4d3m4y4z4A d d d d    ",
"    4g4g f z d 94B4C4b3P2u3&4m4D4n4E4F3N3P3N4G4H 94I d d d d    ",
"    4g4g f z d z x4J4K4L4M4p4N4m4m4N4p4O4P4Q4R18 z d d d d d    ",
"    4g4g f z d d d c b4S4T4U4V4W4X4Y4Z4&5 2  8 d d d d d d d    ",
"    4g4g f z d d d d d d y 9 92 2  9 93v d d d d d d d d d d    ",
"                                                                ",
"                                                                "};

