/* XPM */
static const char *ledverde_xpm[]={
/* GrigliaFrm_WxStaticBitmap1 */
"32 32 563 2",
"      c None",
" 0    c #005612",
" 1    c #005810",
" 2    c #005E0A",
" 3    c #006405",
" 4    c #006701",
" 5    c #005F0A",
" 6    c #005313",
" 7    c #004B1C",
" 8    c #004022",
" 9    c #003126",
" a    c #002526",
" b    c #002525",
" c    c #002625",
" d    c #00282C",
" e    c #003031",
" f    c #003333",
" g    c #003232",
" h    c #004E0C",
" i    c #00420D",
" j    c #04481D",
" k    c #2D6542",
" l    c #5A816D",
" m    c #6C8F7E",
" n    c #6D907F",
" o    c #5E8371",
" p    c #34614E",
" q    c #073A31",
" r    c #002726",
" s    c #00292C",
" t    c #006505",
" u    c #006500",
" v    c #005800",
" w    c #216E22",
" x    c #74AA75",
" y    c #CBE4C9",
" z    c #F4FEF1",
" A    c #F9FFF5",
" B    c #D2E7D1",
" C    c #81A98B",
" D    c #285947",
" E    c #002A29",
" F    c #002E30",
" G    c #003332",
" H    c #005D00",
" I    c #086C05",
" J    c #69AF62",
" K    c #CDECCA",
" L    c #F0FEEE",
" M    c #F5FDF5",
" N    c #F6FCF7",
" O    c #FBFDFB",
" P    c #FCFEFC",
" Q    c #F8FDF8",
" R    c #F2FFEF",
" S    c #D5F3D1",
" T    c #77A77E",
" U    c #0E3F32",
" V    c #00282D",
" W    c #005711",
" X    c #005811",
" Y    c #005606",
" Z    c #147211",
" &    c #90CF87",
"0     c #CFF0CF",
"00    c #D8F0D8",
"01    c #DFF3E0",
"02    c #EAF6EA",
"03    c #F3FBF3",
"04    c #F9FCF9",
"05    c #FDFEFD",
"06    c #FAFDFA",
"07    c #F5FBF5",
"08    c #ECF7EC",
"09    c #E1F2E1",
"0a    c #D9F1D9",
"0b    c #D1F3CD",
"0c    c #9DD499",
"0d    c #20593B",
"0e    c #005116",
"0f    c #005314",
"0g    c #00520E",
"0h    c #187016",
"0i    c #7EC976",
"0j    c #B3E4B4",
"0k    c #BCE4BC",
"0l    c #CDEBCD",
"0m    c #DAF1DA",
"0n    c #E6F5E6",
"0o    c #EEF9EE",
"0p    c #F4FAF4",
"0q    c #F8FCF8",
"0r    c #F0F9F0",
"0s    c #E8F6E8",
"0t    c #DCF1DC",
"0u    c #D0ECD0",
"0v    c #BEE4BE",
"0w    c #B5E5B4",
"0x    c #8CD086",
"0y    c #225C3B",
"0z    c #002A30",
"0A    c #004E18",
"0B    c #004E14",
"0C    c #055A10",
"0D    c #4BA543",
"0E    c #94D894",
"0F    c #A1D9A1",
"0G    c #B3E1B3",
"0H    c #C4E8C4",
"0I    c #D1EDD1",
"0J    c #DEF1DE",
"0K    c #EBF7EB",
"0L    c #E7F5E7",
"0M    c #DFF2DF",
"0N    c #D4EED4",
"0O    c #C8E9C8",
"0P    c #B5E2B5",
"0Q    c #A3DAA3",
"0R    c #97DB96",
"0S    c #5DB157",
"0T    c #0A412E",
"0U    c #002E32",
"0V    c #004C19",
"0W    c #045118",
"0X    c #1A7718",
"0Y    c #2A8D29",
"0Z    c #87D287",
"0&    c #97D797",
"1     c #A8DDA8",
"10    c #B9E4B9",
"11    c #C7E9C7",
"12    c #D3EED3",
"13    c #DBF1DB",
"14    c #E0F3E0",
"15    c #E3F4E3",
"16    c #E1F3E1",
"17    c #DCF2DC",
"18    c #C9EAC9",
"19    c #BCE5BC",
"1a    c #ABDEAB",
"1b    c #99D799",
"1c    c #8BD48C",
"1d    c #3C9C39",
"1e    c #186E1D",
"1f    c #073437",
"1g    c #004B1A",
"1h    c #004918",
"1i    c #136521",
"1j    c #0F770B",
"1k    c #0F7D10",
"1l    c #71C571",
"1m    c #8AD18A",
"1n    c #9AD79A",
"1o    c #B8E3B8",
"1p    c #C3E7C3",
"1q    c #CCEBCC",
"1r    c #D5EED5",
"1s    c #D3EDD3",
"1t    c #CDECCD",
"1u    c #C5E8C5",
"1v    c #BAE4BA",
"1w    c #ADDFAD",
"1x    c #9CD89C",
"1y    c #8CD28C",
"1z    c #79CB79",
"1A    c #198619",
"1B    c #0A7505",
"1C    c #195738",
"1D    c #002D33",
"1E    c #004B1B",
"1F    c #024A18",
"1G    c #278229",
"1H    c #047902",
"1I    c #007B00",
"1J    c #3FAA3F",
"1K    c #80CD81",
"1L    c #9BD79B",
"1M    c #A7DCA7",
"1N    c #B3E0B3",
"1O    c #BBE4BB",
"1P    c #C1E5C1",
"1Q    c #C3E8C3",
"1R    c #C2E6C2",
"1S    c #B5E1B5",
"1T    c #A9DDA9",
"1U    c #9DD89D",
"1V    c #8CD18C",
"1W    c #82CF83",
"1X    c #4DB24D",
"1Y    c #037E03",
"1Z    c #017800",
"1&    c #267D2E",
"2     c #043136",
"20    c #004B17",
"21    c #0D5920",
"22    c #1F8A1E",
"23    c #007F00",
"24    c #008A00",
"25    c #069306",
"26    c #53BA53",
"27    c #7BCA7C",
"28    c #86CF86",
"29    c #93D493",
"2a    c #9FD89F",
"2b    c #A6DCA6",
"2c    c #ACDDAC",
"2d    c #AEE0AE",
"2e    c #ACDEAC",
"2f    c #A0D9A0",
"2g    c #94D594",
"2h    c #88D088",
"2i    c #7CCB7D",
"2j    c #5CBE5C",
"2k    c #0C970D",
"2l    c #008000",
"2m    c #1B8A18",
"2n    c #164A3F",
"2o    c #002D30",
"2p    c #004812",
"2q    c #267431",
"2r    c #169214",
"2s    c #008B00",
"2t    c #009600",
"2u    c #029A01",
"2v    c #0EA00B",
"2w    c #47B646",
"2x    c #72C773",
"2y    c #7FCC80",
"2z    c #8AD08A",
"2A    c #90D390",
"2B    c #96D596",
"2C    c #99D699",
"2D    c #91D391",
"2E    c #8BD18B",
"2F    c #81CD82",
"2G    c #75C876",
"2H    c #4DB84C",
"2I    c #12A20E",
"2J    c #029A00",
"2K    c #019700",
"2L    c #008D00",
"2M    c #0E920A",
"2N    c #2C6A47",
"2O    c #002930",
"2P    c #004C10",
"2Q    c #2E8536",
"2R    c #0C960A",
"2S    c #059D04",
"2T    c #0CA108",
"2U    c #10A30A",
"2V    c #13A60A",
"2W    c #31B12A",
"2X    c #52BC4F",
"2Y    c #6AC369",
"2Z    c #76C878",
"2&    c #7DCA7F",
"3     c #80CC81",
"30    c #80CC82",
"31    c #7DCA7E",
"32    c #78C879",
"33    c #6CC46C",
"34    c #57BD53",
"35    c #36B330",
"36    c #13A60C",
"37    c #0DA109",
"38    c #079D05",
"39    c #019800",
"3a    c #039401",
"3b    c #27773E",
"3c    c #012C35",
"3d    c #005311",
"3e    c #298A31",
"3f    c #049B03",
"3g    c #069C03",
"3h    c #0EA109",
"3i    c #13A50D",
"3j    c #19A911",
"3k    c #20AD14",
"3l    c #21B014",
"3m    c #25B317",
"3n    c #31B724",
"3o    c #41BA36",
"3p    c #4CBE42",
"3q    c #51BF48",
"3r    c #51BF49",
"3s    c #4DBE44",
"3t    c #43BC38",
"3u    c #34B826",
"3v    c #26B418",
"3w    c #21B114",
"3x    c #1BAB13",
"3y    c #14A60E",
"3z    c #0FA20A",
"3A    c #089D05",
"3B    c #049C02",
"3C    c #27813C",
"3D    c #022C36",
"3E    c #00570D",
"3F    c #2A8F30",
"3G    c #07A005",
"3H    c #13A60E",
"3I    c #21AF16",
"3J    c #28B31A",
"3K    c #2DB81F",
"3L    c #32BB21",
"3M    c #35BD22",
"3N    c #37BE22",
"3O    c #38C023",
"3P    c #39C124",
"3Q    c #38C123",
"3R    c #38BF22",
"3S    c #35BD21",
"3T    c #33BC22",
"3U    c #2EB81F",
"3V    c #23B017",
"3W    c #1CAB13",
"3X    c #15A70F",
"3Y    c #06A103",
"3Z    c #28843C",
"3&    c #005904",
"4     c #329235",
"40    c #15A812",
"41    c #11A40B",
"42    c #1BAA12",
"43    c #22AF16",
"44    c #29B41B",
"45    c #30B81F",
"46    c #35BC23",
"47    c #3BC027",
"48    c #3FC42B",
"49    c #44C72D",
"4a    c #46C82E",
"4b    c #47CA30",
"4c    c #46C92F",
"4d    c #45C72D",
"4e    c #40C42B",
"4f    c #3CC027",
"4g    c #36BE25",
"4h    c #30B920",
"4i    c #2AB51C",
"4j    c #0CA606",
"4k    c #2B8043",
"4l    c #012B35",
"4m    c #318A31",
"4n    c #25B021",
"4o    c #14A60D",
"4p    c #21AE15",
"4q    c #29B31A",
"4r    c #38BD24",
"4s    c #3EC229",
"4t    c #4ACB31",
"4u    c #4ECD33",
"4v    c #50CF35",
"4w    c #51D036",
"4x    c #51CF35",
"4y    c #45C82E",
"4z    c #3FC32A",
"4A    c #39BE25",
"4B    c #31B920",
"4C    c #2AB41B",
"4D    c #18A911",
"4E    c #1EB115",
"4F    c #357552",
"4G    c #00282F",
"4H    c #127113",
"4I    c #35B12E",
"4J    c #17AB0D",
"4K    c #27B219",
"4L    c #2FB71E",
"4M    c #37BD24",
"4N    c #3FC229",
"4O    c #4CCC32",
"4P    c #52D036",
"4Q    c #56D43A",
"4R    c #59D63C",
"4S    c #5BD73D",
"4T    c #5AD63C",
"4U    c #57D43A",
"4V    c #52D137",
"4W    c #4DCD33",
"4X    c #47C92F",
"4Y    c #40C32A",
"4Z    c #38BE25",
"4&    c #19AB0F",
"5     c #31B42A",
"50    c #22514B",
"51    c #002C2E",
"52    c #035B09",
"53    c #43A643",
"54    c #25B517",
"55    c #2AB51B",
"56    c #34BB22",
"57    c #3DC128",
"58    c #54D238",
"59    c #5BD63C",
"5a    c #60DA40",
"5b    c #64DC42",
"5c    c #66DE44",
"5d    c #65DC42",
"5e    c #61DA40",
"5f    c #55D339",
"5g    c #4ECE34",
"5h    c #2CB61D",
"5i    c #22B513",
"5j    c #43A44A",
"5k    c #063038",
"5l    c #003231",
"5m    c #005B0D",
"5n    c #00510C",
"5o    c #257532",
"5p    c #3BBD2E",
"5q    c #2CB81B",
"5r    c #38BF26",
"5s    c #42C52C",
"5t    c #4ACC32",
"5u    c #53D137",
"5v    c #62DB41",
"5w    c #68DF45",
"5x    c #6DE349",
"5y    c #6FE44A",
"5z    c #6DE248",
"5A    c #69E046",
"5B    c #63DC42",
"5C    c #5CD73D",
"5D    c #4BCC32",
"5E    c #43C72D",
"5F    c #39C027",
"5G    c #2EB91C",
"5H    c #37C027",
"5I    c #326C51",
"5J    c #08491E",
"5K    c #49A34D",
"5L    c #35C221",
"5M    c #3CC128",
"5N    c #4FCE34",
"5O    c #59D53B",
"5P    c #61DB41",
"5Q    c #69E147",
"5R    c #70E54B",
"5S    c #76E94F",
"5T    c #7AEB51",
"5U    c #77E94F",
"5V    c #71E64C",
"5W    c #6AE147",
"5X    c #50D036",
"5Y    c #48C92F",
"5Z    c #34C21F",
"5&    c #4CAB4F",
"6     c #0D343B",
"60    c #002F2F",
"61    c #00491C",
"62    c #003F1D",
"63    c #1B523A",
"64    c #55C44A",
"65    c #3CC823",
"66    c #48CA30",
"67    c #5DD73D",
"68    c #65DD43",
"69    c #7EEE54",
"6a    c #84F258",
"6b    c #7FEF55",
"6c    c #79EA50",
"6d    c #71E44A",
"6e    c #67DE44",
"6f    c #5ED83E",
"6g    c #3CC523",
"6h    c #53CB44",
"6i    c #26544E",
"6j    c #002A2E",
"6k    c #003E26",
"6l    c #003E28",
"6m    c #002E28",
"6n    c #316252",
"6o    c #5DCC4F",
"6p    c #48D02B",
"6q    c #55D238",
"6r    c #60D940",
"6s    c #73E64C",
"6t    c #7CED53",
"6u    c #85F359",
"6v    c #8DF75D",
"6w    c #8EF95F",
"6x    c #87F45A",
"6y    c #74E74D",
"6z    c #6AE046",
"6A    c #56D239",
"6B    c #48CF2C",
"6C    c #5CD247",
"6D    c #3C7159",
"6E    c #00272F",
"6F    c #003C28",
"6G    c #003331",
"6H    c #00272E",
"6I    c #346355",
"6J    c #67D155",
"6K    c #59DD36",
"6L    c #5EDB3C",
"6M    c #69DF45",
"6N    c #74E64C",
"6O    c #7DEE54",
"6P    c #88F45A",
"6Q    c #92FB61",
"6R    c #93FD63",
"6S    c #8AF65C",
"6T    c #75E74D",
"6U    c #6AE047",
"6V    c #5FDB3D",
"6W    c #59DC37",
"6X    c #66D750",
"6Y    c #3F735A",
"6Z    c #012730",
"6&    c #003230",
"7     c #003431",
"70    c #00272D",
"71    c #234C4B",
"72    c #64B264",
"73    c #70E44F",
"74    c #6CE844",
"75    c #6FE747",
"76    c #7AEB50",
"77    c #85F258",
"78    c #8CF75D",
"79    c #8DF85E",
"7a    c #87F359",
"7b    c #7CEC52",
"7c    c #71E749",
"7d    c #70E74E",
"7e    c #66B962",
"7f    c #2A544F",
"7g    c #002B2D",
"7h    c #092E37",
"7i    c #376756",
"7j    c #6DB66A",
"7k    c #81E562",
"7l    c #87F65D",
"7m    c #86F955",
"7n    c #89FB57",
"7o    c #86F956",
"7p    c #87F75C",
"7q    c #82E962",
"7r    c #71BE69",
"7s    c #40735A",
"7t    c #0D3139",
"7u    c #002A2D",
"7v    c #002F30",
"7w    c #00282E",
"7x    c #022B34",
"7y    c #214B4B",
"7z    c #4C7A64",
"7A    c #589663",
"7B    c #62A565",
"7C    c #62A666",
"7D    c #5A9863",
"7E    c #4E7F64",
"7F    c #27514F",
"7G    c #042C35",
"7H    c #002E2F",
"7I    c #002D2D",
"7J    c #00252A",
"7K    c #002730",
"7L    c #002731",
"7M    c #00262B",
"7N    c #002B2C",
"                                                                ",
"                                                                ",
"     0 0 0 1 2 3 4 5 6 7 8 9 a b c a d e f g g g g g g g g g    ",
"     0 0 0 1 2 3 4 2 h i j k l m n o p q r s e g g g g g g g    ",
"     0 0 0 1 2 t u v w x y z         A B C D E F G g g g g g    ",
"     0 0 0 1 2 H I J K L M N O     P Q M R S T U V g g g g g    ",
"     W W 0 X Y Z &0 00010203040505060708090a0b0c0d V g g g g    ",
"    0e0e0f0g0h0i0j0k0l0m0n0o0p0q0q070r0s0t0u0v0w0x0y0z g g g    ",
"    0A0A0B0C0D0E0F0G0H0I0J0n0K0o0o080L0M0N0O0P0Q0R0S0T0U g g    ",
"    0V0V0W0X0Y0Z0&1 1011121314151516170N18191a1b1c1d1e1f e g    ",
"    1g1h1i1j1k1l1m1n1a1o1p1q0I1r1r1s1t1u1v1w1x1y1z1A1B1C1D g    ",
"    1E1F1G1H1I1J1K1m1L1M1N1O1P1Q1Q1R0k1S1T1U1V1W1X1Y1Z1&2  g    ",
"    202122232425262728292a2b2c2d2d2e1M2f2g2h2i2j2k242l2m2n2o    ",
"    2p2q2r2s2t2u2v2w2x2y2z2A2B2C2C2B2D2E2F2G2H2I2J2K2L2M2N2O    ",
"    2P2Q2R2t2S2T2U2V2W2X2Y2Z2&3 303132333435362U3738393a3b3c    ",
"    3d3e3f3g3h3i3j3k3l3m3n3o3p3q3r3s3t3u3v3w3k3x3y3z3A3B3C3D    ",
"    3E3F3G373H3x3I3J3K3L3M3N3O3P3P3Q3R3S3T3U3J3V3W3X3z3Y3Z3D    ",
"    3&4 404142434445464748494a4b4b4c4d4e4f4g4h4i3V3W3y4j4k4l    ",
"     H4m4n4o4p4q4h4r4s494t4u4v4w4w4x4u4t4y4z4A4B4C434D4E4F4G    ",
"     u4H4I4J4K4L4M4N4a4O4P4Q4R4S4S4T4U4V4W4X4Y4Z453J4&5 5051    ",
"     35253545556574y4W58595a5b5c5c5d5e4S5f5g4a4s465h5i5j5k5l    ",
"    5m5n5o5p5q5r5s5t5u595v5w5x5y5y5z5A5B5C585D5E5F5G5H5I2O g    ",
"    0f0B5J5K5L5M4X5N5O5P5Q5R5S5T5T5U5V5W5v4T5X5Y4s5Z5&6 60 g    ",
"    616162636465665u67685y5U696a6a6b6c6d6e6f584t6g6h6i6j g g    ",
"    6k6k6l6m6n6o6p6q6r5w6s6t6u6v6w6x696y6z5e6A6B6C6D6E g g g    ",
"    6k6k6F6G6H6I6J6K6L6M6N6O6P6Q6R6S6b6T6U6V6W6X6Y6Z6& g g g    ",
"    6k6k6F7  g707172737475767778797a7b7c747d7e7f6H5l g g g g    ",
"    6k6k6F7  g G7g7h7i7j7k7l7m7n7n7o7p7q7r7s7t7u g g g g g g    ",
"    6k6k6F7  g g g7v7w7x7y7z7A7B7C7D7E7F7G6H7H G g g g g g g    ",
"    6k6k6F7  g g g g g g7I7J7K7L7L7K7M7N g g g g g g g g g g    ",
"                                                                ",
"                                                                "};

