/* XPM */
static char * microphone_xpm[] = {
"32 32 227 2",
"  	c None",
". 	c #323533",
"+ 	c #6A7471",
"@ 	c #373A37",
"# 	c #101010",
"$ 	c #141615",
"% 	c #919892",
"& 	c #111312",
"* 	c #151716",
"= 	c #3F433F",
"- 	c #444944",
"; 	c #747E77",
"> 	c #747D7A",
", 	c #3A3E3B",
"' 	c #131313",
") 	c #BAC0BC",
"! 	c #141414",
"~ 	c #454B48",
"{ 	c #4C514E",
"] 	c #323533",
"^ 	c #151515",
"/ 	c #82928C",
"( 	c #323533",
"_ 	c #323533",
": 	c #A1A9A2",
"< 	c #161616",
"[ 	c #3C3E3E",
"} 	c #A7AFA9",
"| 	c #889091",
"1 	c #444A46",
"2 	c #323533",
"3 	c #A5AFA8",
"4 	c #B2BBB5",
"5 	c #585E5B",
"6 	c #A2AFAB",
"7 	c #323533",
"8 	c #CED9D5",
"9 	c #454B48",
"0 	c #323533",
"a 	c #323533",
"b 	c #414845",
"c 	c #5B605F",
"d 	c #9AA7A0",
"e 	c #A0ADA6",
"f 	c #626B69",
"g 	c #6A716E",
"h 	c #737F77",
"i 	c #81938C",
"j 	c #939F98",
"k 	c #515552",
"l 	c #9CAAA6",
"m 	c #323533",
"n 	c #B8BFBA",
"o 	c #B8C3BD",
"p 	c #C3CCC5",
"q 	c #5F6362",
"r 	c #323533",
"s 	c #484C49",
"t 	c #454B48",
"u 	c #434644",
"v 	c #2A2C2B",
"w 	c #454B48",
"x 	c #404441",
"y 	c #454B48",
"z 	c #3A3E3B",
"A 	c #292C2B",
"B 	c #686C6B",
"C 	c #686E6D",
"D 	c #393B3A",
"E 	c #2D2F2E",
"F 	c #2B2E2D",
"G 	c #171918",
"H 	c #111312",
"I 	c #151816",
"J 	c #171A18",
"K 	c #1C1F1E",
"L 	c #252826",
"M 	c #262927",
"N 	c #272A29",
"O 	c #282A28",
"P 	c #282B29",
"Q 	c #282B2A",
"R 	c #292C2B",
"S 	c #2A2D2C",
"T 	c #2B2D2D",
"U 	c #2C2E2E",
"V 	c #2C2F2E",
"W 	c #2D302F",
"X 	c #2E302E",
"Y 	c #2F3130",
"Z 	c #2F3230",
"` 	c #323533",
" .	c #323534",
"..	c #333633",
"+.	c #333634",
"@.	c #343634",
"#.	c #353937",
"$.	c #363938",
"%.	c #363A38",
"&.	c #363B38",
"*.	c #373938",
"=.	c #373A39",
"-.	c #383A39",
";.	c #383B39",
">.	c #393D3B",
",.	c #3A3D3B",
"'.	c #3C3F3D",
").	c #3D4040",
"!.	c #3E4240",
"~.	c #3F4241",
"{.	c #404442",
"].	c #414543",
"^.	c #414544",
"/.	c #424443",
"(.	c #424543",
"_.	c #424643",
":.	c #434745",
"<.	c #444744",
"[.	c #454B48",
"}.	c #474948",
"|.	c #494C4B",
"1.	c #4A504C",
"2.	c #4C514E",
"3.	c #4D514F",
"4.	c #4E514F",
"5.	c #515352",
"6.	c #515552",
"7.	c #525452",
"8.	c #525755",
"9.	c #535553",
"0.	c #545655",
"a.	c #545756",
"b.	c #555856",
"c.	c #575B59",
"d.	c #585A58",
"e.	c #585A5B",
"f.	c #585D5A",
"g.	c #595D5B",
"h.	c #5B5E5E",
"i.	c #5B635D",
"j.	c #5C5F5D",
"k.	c #5C625F",
"l.	c #5F6461",
"m.	c #606663",
"n.	c #616865",
"o.	c #626464",
"p.	c #636565",
"q.	c #646564",
"r.	c #666E69",
"s.	c #696C6C",
"t.	c #6D7271",
"u.	c #6D7470",
"v.	c #6E7171",
"w.	c #6E736F",
"x.	c #6E7370",
"y.	c #6E7371",
"z.	c #6F7272",
"A.	c #707471",
"B.	c #717976",
"C.	c #727473",
"D.	c #727673",
"E.	c #737574",
"F.	c #737777",
"G.	c #747978",
"H.	c #757675",
"I.	c #787B7B",
"J.	c #7B7D7B",
"K.	c #7D8481",
"L.	c #7F8180",
"M.	c #828382",
"N.	c #858B89",
"O.	c #878988",
"P.	c #8A918F",
"Q.	c #8B918D",
"R.	c #8D9290",
"S.	c #8D9892",
"T.	c #8E9190",
"U.	c #8F9191",
"V.	c #8F9693",
"W.	c #8F9B94",
"X.	c #929493",
"Y.	c #959B97",
"Z.	c #969998",
"`.	c #979D9C",
" +	c #989B9A",
".+	c #9A9F9D",
"++	c #9FA6A2",
"@+	c #A0A1A0",
"#+	c #A0A1A1",
"$+	c #A1A7A4",
"%+	c #A4ACA8",
"&+	c #A5A5A5",
"*+	c #A6A8A7",
"=+	c #A7ADAB",
"-+	c #A9AFAD",
";+	c #AAACAB",
">+	c #ACADAC",
",+	c #ACB3AF",
"'+	c #B5B6B6",
")+	c #B7B8B8",
"!+	c #B9BEBC",
"~+	c #BCC1C1",
"{+	c #C0C6C4",
"]+	c #C2C4C4",
"^+	c #C2CBC6",
"/+	c #C3C7C6",
"(+	c #C6C8C8",
"_+	c #C9CECC",
":+	c #CCCECE",
"<+	c #CCCFCE",
"[+	c #CED0CF",
"}+	c #D5DAD7",
"|+	c #D9DDDC",
"1+	c #DBE0DE",
"2+	c #DDE2E0",
"3+	c #DEDFE0",
"4+	c #DEE1E1",
"5+	c #E5E9E8",
"6+	c #E6E7E9",
"7+	c #E8EAE8",
"8+	c #EAEEED",
"9+	c #EEEFEE",
"0+	c #F2F6F5",
"a+	c #F6F9F9",
"b+	c #FBFEFF",
"c+	c #FDFEFF",
"d+	c #FFFFFF",
"                              a r r 0                           ",
"                          m ` +.O O +.` 7                       ",
"                          Z j.E.>+&+O._.Z                       ",
"                        A 9.H.@+M.#+J.L.<.v                     ",
"                        z }.U.q.)+q.'+d.C.F                     ",
"                        G p.7.;+0.;+b.*+@.{.                    ",
"                        ].P X.(.:+(.(+;.v.R                     ",
"                        J o.-.]+'.]+=.]+ .,.                    ",
"                        ^.O T.$.[+$.#+$.z.S                     ",
"                        I a...#+#.#+Q #+L !.                    ",
"                        T K e.Q I.Q h.Q ~.V                     ",
"                        H U M ).N ).Q ).W H                     ",
"                    D   1.m.%+|+4+4+|+%+s.1.  D                 ",
"                    E u &.u.^+0+c+c+0+^+u.&.u E                 ",
"                    b k %.3.8.c.g.g.c.8.3.%.k b                 ",
"                    f   >.x.P.++-+-+++P.x.>.  f                 ",
"                    g   i.r.W.5+a+a+5+W.r.i.  g                 ",
"                    h   2.k.S.8+b+b+8+S.k.2.  h                 ",
"                    i   Y :.n.t.F.F.t.n.:.Y   i                 ",
"                    j   x l.N.=+!+!+=+N.l.x   j                 ",
"                    l   s y..+{+}+}+{+.+y.s   l                 ",
"                    6     w.$+_+2+2+_+$+w.    6                 ",
"                      e   c R./+1+1+/+R.c   e                   ",
"                      d       q B B q       d                   ",
"                        o                 o                     ",
"                          8 n 4 p p 4 n 8                       ",
"                              f.D.A.Q.                          ",
"                              l. +Z.Y.                          ",
"                        9 t w y [.[.y w t 9                     ",
"                    5 C K.`.~+3+6+6+3+~+`.K.C 5                 ",
"                    B.G.V.,+<+7+9+9+7+<+,+V.G.B.                ",
"                    X *./.|.4.6.5.5.6.4.|./.*.X                 "};
