/* XPM */
static char * microphone_xpm[] = {
"24 24 100 2",
"  	c None",
". 	c #919191",
"+ 	c #EAEAEA",
"@ 	c #B8B8B8",
"# 	c #A3A3A3",
"$ 	c #E3E3E3",
"% 	c #B2B2B2",
"& 	c #FAFAFA",
"* 	c #818181",
"= 	c #CCCCCC",
"- 	c #A8A8A8",
"; 	c #EBEBEB",
"> 	c #AEAEAE",
", 	c #9C9C9C",
"' 	c #D7D7D7",
") 	c #909090",
"! 	c #C1C1C1",
"~ 	c #DDDDDD",
"{ 	c #ADADAD",
"] 	c #858585",
"^ 	c #C5C5C5",
"/ 	c #D6D6D6",
"( 	c #0D0D0D",
"_ 	c #7C7C7C",
": 	c #ACACAC",
"< 	c #C0C0C0",
"[ 	c #BBBBBB",
"} 	c #DFDFDF",
"| 	c #E8E8E8",
"1 	c #F3F3F3",
"2 	c #FCFCFC",
"3 	c #FFFFFF",
"4 	c #F2F2F2",
"5 	c #E0E0E0",
"6 	c #999999",
"7 	c #BCBCBC",
"8 	c #585858",
"9 	c #919192",
"0 	c #9F9F9F",
"a 	c #B7B7B7",
"b 	c #BABABA",
"c 	c #B4B4B4",
"d 	c #A9A9A9",
"e 	c #909091",
"f 	c #575757",
"g 	c #BEBEC0",
"h 	c #BABABB",
"i 	c #C3C3C3",
"j 	c #D4D4D4",
"k 	c #D8D8D8",
"l 	c #C2C2C5",
"m 	c #595959",
"n 	c #B3B3B5",
"o 	c #BCBCBD",
"p 	c #C5C5C6",
"q 	c #CDCDCE",
"r 	c #D1D1D1",
"s 	c #B3B3B4",
"t 	c #BFBFC3",
"u 	c #666667",
"v 	c #A1A1A4",
"w 	c #B4B4B7",
"x 	c #BDBDBE",
"y 	c #C9C9C9",
"z 	c #AAAAB0",
"A 	c #858588",
"B 	c #ACACB0",
"C 	c #B5B5B7",
"D 	c #848486",
"E 	c #626265",
"F 	c #BDBDC6",
"G 	c #717173",
"H 	c #96969A",
"I 	c #A8A8AC",
"J 	c #B0B0B1",
"K 	c #959599",
"L 	c #6F6F70",
"M 	c #9B9BA4",
"N 	c #B2B2BB",
"O 	c #808082",
"P 	c #919194",
"Q 	c #9D9D9F",
"R 	c #A2A2A2",
"S 	c #8E8E91",
"T 	c #7C7C7E",
"U 	c #B1B1BA",
"V 	c #9999A2",
"W 	c #C9C9D6",
"X 	c #A9A9AE",
"Y 	c #9F9FA1",
"Z 	c #9A9A9A",
"` 	c #9B9B9C",
" .	c #A5A5AA",
"..	c #C8C8D5",
"+.	c #4B4B50",
"@.	c #A9A9B5",
"#.	c #CECEDC",
"$.	c #DADAE9",
"%.	c #040404",
"&.	c #AAAABB",
"                                                ",
"                                                ",
"                  . + @ + .                     ",
"                # $ % & % $ #                   ",
"              * = - ; - ; - = *                 ",
"              > , ' , ; , ' , >                 ",
"              ) ! ) ~ ) ~ ) ! )                 ",
"              { ] ^ ] / ] ^ ] {                 ",
"            ( _ : _ < _ < _ : _ (               ",
"          ~ [ } | 1 2 3 & 4 | 5 [ ~             ",
"          ~ 6 } | 1 2 3 & 4 | 5 6 ~             ",
"          7 8 9 0 : a b c d , e f 7             ",
"          g 8 h i = j k j = i h f g             ",
"          l m n o p q r q p o s m l             ",
"          t u v w x p y p x w v u t             ",
"          z A A B C x ! x C B D A z             ",
"          E F G H I J c J I K L F E             ",
"            M N O P Q R Q S T U M               ",
"              V W X Y Z `  ...V                 ",
"                +.@.#.$.#.@.+.                  ",
"                    %.V %.                      ",
"                    %.&.%.                      ",
"                      %.                        ",
"                                                "};
