/* XPM */
static char * usa_xpm[] = {
"32 32 107 2",
"  	c None",
". 	c #44448E",
"+ 	c #474790",
"@ 	c #E84D5E",
"# 	c #E84F60",
"$ 	c #464690",
"% 	c #E7E7F5",
"& 	c #8989B9",
"* 	c #FFFFFF",
"= 	c #42428E",
"- 	c #8282B4",
"; 	c #E3E3F3",
"> 	c #7172AA",
", 	c #7272AA",
"' 	c #7271AA",
") 	c #ED7783",
"! 	c #ED7683",
"~ 	c #EF8691",
"{ 	c #EA5D6B",
"] 	c #40408C",
"^ 	c #E4E4F3",
"/ 	c #6A6AA5",
"( 	c #E1E1F2",
"_ 	c #ED6F7C",
": 	c #EF7E89",
"< 	c #EA5867",
"[ 	c #3B3B8A",
"} 	c #7070A9",
"| 	c #DFDFF1",
"1 	c #6161A0",
"2 	c #373787",
"3 	c #E0E0F1",
"4 	c #56569A",
"5 	c #DDDDF0",
"6 	c #EA5C6C",
"7 	c #EC6978",
"8 	c #E84E5F",
"9 	c #333385",
"0 	c #575799",
"a 	c #DBDBEF",
"b 	c #4B4B92",
"c 	c #E85161",
"d 	c #EA5D6C",
"e 	c #E74859",
"f 	c #2F2F82",
"g 	c #DADAF0",
"h 	c #3E3E8B",
"i 	c #D8D8EF",
"j 	c #2A2A7F",
"k 	c #3C3C8A",
"l 	c #D6D7EE",
"m 	c #D7D6EE",
"n 	c #D6D6EE",
"o 	c #333384",
"p 	c #E5394C",
"q 	c #E53A4D",
"r 	c #E64255",
"s 	c #E63B4D",
"t 	c #25257D",
"u 	c #D5D5ED",
"v 	c #27277D",
"w 	c #D4D4EC",
"x 	c #27277E",
"y 	c #E42F42",
"z 	c #E43042",
"A 	c #E53648",
"B 	c #E43144",
"C 	c #212179",
"D 	c #21217B",
"E 	c #D2D2EB",
"F 	c #1C1C77",
"G 	c #CFCFEA",
"H 	c #0B0B6C",
"I 	c #CECEEA",
"J 	c #E01329",
"K 	c #E0182E",
"L 	c #E3263B",
"M 	c #181874",
"N 	c #0C0C6E",
"O 	c #08086B",
"P 	c #E01127",
"Q 	c #E0152B",
"R 	c #E12236",
"S 	c #FDFDFD",
"T 	c #DD172C",
"U 	c #E11329",
"V 	c #E00D24",
"W 	c #DD182D",
"X 	c #DB1428",
"Y 	c #E01227",
"Z 	c #DF0B21",
"` 	c #DF0C21",
" .	c #DB1529",
"..	c #F7F7F7",
"+.	c #F6F6F6",
"@.	c #D70C22",
"#.	c #DF0920",
"$.	c #D60D22",
"%.	c #D40A20",
"&.	c #E0142A",
"*.	c #D40B21",
"=.	c #F0F0F0",
"-.	c #D1081E",
";.	c #E1162B",
">.	c #D0081E",
",.	c #CC151B",
"'.	c #CD151B",
"                                                                ",
"                                                                ",
"                                                                ",
"                                                                ",
"                                                                ",
"  . + + + + + + + + + + + + + + @ @ @ @ @ @ @ @ @ @ @ @ @ @ #   ",
"  $ % & % & % & % & % & % & % & * * * * * * * * * * * * * * *   ",
"  = - ; > ; , ; , ; ' ; , ; > , ) ) ) ! ! ) ) ) ! ) ) ! ! ~ {   ",
"  ] ^ / ( / ( / ( / ( / ( / ( / _ _ _ _ _ _ _ _ _ _ _ _ _ : <   ",
"  [ } | 1 | 1 | 1 | 1 | 1 | 1 1 * * * * * * * * * * * * * * *   ",
"  2 3 4 5 4 5 4 5 4 5 4 5 4 5 4 6 6 6 6 6 6 6 6 6 6 6 6 6 7 8   ",
"  9 0 a b a b a b a b a b a b b c c c c c c c c c c c c c d e   ",
"  f g h i h i h i h i h i h i h * * * * * * * * * * * * * * *   ",
"  j k l 9 m 9 n 9 n 9 n 9 n 9 o p q q p q q q p q p q q q r s   ",
"  t u v w x w v w x w x w v w x y z z z z z z z z z z y z A B   ",
"  C D E F E F E F E F E F E F F * * * * * * * * * * * * * * *   ",
"  F G H I H I H I H I H I H I H J J J J J J J J J J J J J K L   ",
"  M N O O O O O O O O O O O O O P P P P P P P P P P P P P Q R   ",
"  S * * * * * * * * * * * * * * * * * * * * * * * * * * * * S   ",
"  T U V V V V V V V V V V V V V V V V V V V V V V V V V V U W   ",
"  X Y Z Z Z Z Z Z Z Z Z Z Z Z ` Z Z Z ` ` Z ` Z Z Z Z Z Z Y  .  ",
"  ..* * * * * * * * * * * * * * * * * * * * * * * * * * * * +.  ",
"  @.J #.#.#.#.#.#.#.#.#.#.#.#.#.#.#.#.#.#.#.#.#.#.#.#.#.#.J $.  ",
"  %.&.#.#.#.#.#.#.#.#.#.#.#.#.#.#.#.#.#.#.#.#.#.#.#.#.#.#.&.*.  ",
"  =.* * * * * * * * * * * * * * * * * * * * * * * * * * * * =.  ",
"  -.;.;.;.;.;.;.;.;.;.;.;.;.;.;.;.;.;.;.;.;.;.;.;.;.;.;.;.;.>.  ",
"  ,.'.'.'.'.'.'.'.'.'.'.'.'.'.'.'.'.'.'.'.'.'.'.'.'.'.'.'.'.,.  ",
"                                                                ",
"                                                                ",
"                                                                ",
"                                                                ",
"                                                                "};
